<?xml version="1.0" encoding="UTF-8" standalone="no"?>
<svg
   xmlns:dc="http://purl.org/dc/elements/1.1/"
   xmlns:cc="http://creativecommons.org/ns#"
   xmlns:rdf="http://www.w3.org/1999/02/22-rdf-syntax-ns#"
   xmlns:svg="http://www.w3.org/2000/svg"
   xmlns="http://www.w3.org/2000/svg"
   version="1.1"
   id="svg2"
   viewBox="0 0 3000 3000"
   height="3000"
   width="3000">
  <defs
     id="defs4">
    <filter
       style="color-interpolation-filters:sRGB"
       id="filter4141">
      <feGaussianBlur
         stdDeviation="10"
         id="feGaussianBlur4143" />
      <feSpecularLighting
         stdDeviation="12.6"
         id="feSpecularLighting4145"
         surfaceScale="5"
         specularConstant="2"
         specularExponent="25"
         result="result1">
        <feDistantLight
           id="feDistantLight4147"
           azimuth="252"
           elevation="35" />
      </feSpecularLighting>
      <feComposite
         id="feComposite4149"
         in2="result1"
         in="SourceGraphic"
         operator="arithmetic"
         k2="1"
         k3="1"
         result="result2" />
      <feComposite
         id="feComposite4151"
         in2="SourceGraphic"
         in="result2"
         operator="in" />
    </filter>
    <filter
       id="filter4142"
       style="color-interpolation-filters:sRGB">
      <feGaussianBlur
         in="SourceGraphic"
         id="feGaussianBlur4144"
         stdDeviation="4" />
    </filter>
  </defs>
  <metadata
     id="metadata7">
    <rdf:RDF>
      <cc:Work
         rdf:about="">
        <dc:format>image/svg+xml</dc:format>
        <dc:type
           rdf:resource="http://purl.org/dc/dcmitype/StillImage" />
        <dc:title></dc:title>
      </cc:Work>
    </rdf:RDF>
  </metadata>
  <g
     transform="translate(0,1947.6)"
     style="filter:url(#filter4142)"
     id="layer1">
    <path
       id="path4136"
       d="m -44.797,-1153.3 c -49.679,444.25 -43.845,893.01 -69.013,1338.97 M -9.7967,-1403.3 c 23.8217,158.9 -25.5453,320 -23.8753,480.39 -19.171,573.57 -37.231,1147.21 -61.504,1720.62 -2.15,89.32 -3.83,178.65 -1.63,267.99 m 83.009,-2508 c 69.016,148.9 8.9123,316 15.0006,473.01 C -10.692,-397.14 -24.948,175.03 -45.289,747 c -1.743,107.89 -4.575,215.83 -0.508,323.7 m 40.0003,-2511 C 78.649,-1296 23.143,-1122 33.203,-964.29 29.507,-414.96 23.001,134.35 4.3289,683.42 2.3009,813.85 0.80659,944.29 5.2039,1074.7 m -5.00031,-2514 C 96.229,-1298.5 55.499,-1120.7 64.203,-960.29 77.761,-358.45 60.781,243.27 52.256,844.99 c 0.195,77.92 2.002,155.81 4.947,233.71 m -51.9991,-2516 c 121.2361,157.9 72.5581,369.7 92.6241,554.14 30.462,607.01 3.622,1214.57 7.372,1821.83 1.69,47.69 3.28,95.43 6,143.03 M 8.2042,-1437.3 c 139.1458,162.2 101.4958,390.9 124.9858,588.01 40.58,590.01 17.2,1181.29 24.3,1771.92 1.75,53.71 3.05,107.47 6.7,161.07 m -153.986,-2520 c 152.546,156.3 129.466,389.8 155.986,590.01 57.56,606.66 29.67,1216.3 46.52,1824.37 1.54,35.52 3.22,71.12 5.48,106.62 M 9.2042,-1436.3 c 172.1358,157 160.3458,406.5 192.8158,618.62 70.23,608.65 44.11,1221.99 66.8,1832.88 l 2.14,35.2 2.23,35.3 M 8.2042,-1437.3 c 126.5758,106.3 174.3858,268 197.3158,425.7 119.3,669.46 90.85,1351.53 119.3,2027.8 l 2.14,35.2 2.23,35.3 M 4.2039,-1440.3 c 119.6061,97.9 190.7161,237.8 217.7361,388.5 161.94,701.58 121.62,1425.22 164.25,2138.5 M 5.2039,-1437.3 c 123.7161,97.6 206.0461,235.3 240.8261,388.5 181.92,670.61 156.25,1370.89 193.16,2058.5 2.03,25.3 3.97,50.7 6,76 m -457.987,-2540 c 110.26,95.5 217.757,201.7 259.987,346 231.78,670.89 209.67,1389.41 249.47,2088.63 2.38,34.77 5.03,69.57 8.13,104.37 M 5.2039,-1437.3 C 128.96,-1339.1 234.61,-1216.6 284.44,-1064 541.66,-378.25 512.62,364.09 565.39,1082.7 m -578.187,-2540 c 122.987,105.6 249.427,215.6 307.987,372 293.45,670.67 280.18,1416.18 329.15,2132.2 l 3.15,33.8 m -610.287,-2516 c 128.077,103.4 247.367,222 310.867,377.3 293.81,623.58 313.24,1325.87 351.92,2001.67 3.3,45.05 6.9,90.03 11.3,135.03 m -681.086,-2530 c 125.356,110 257.636,219 329.236,374.5 316.56,598.32 365.87,1287.49 400.85,1950.97 4.7,67.24 9.65,134.43 16.44,201.53 m -764.5267,-2567 c 110.3267,131 266.7667,220.5 346.5667,377.8 351,587.01 431.47,1283.03 466.01,1953.08 5.49,77.77 11.25,155.55 19.15,233.12 m -802.727,-2557 c 103.557,129.1 255.007,215.7 334.647,365.7 356.42,556.04 475.93,1223.75 511.58,1873.27 7.62,105.07 15.09,210.18 25.4,315.03 m -914.627,-2738 c 22.00459,157.2 136.367,271.6 252.867,367.6 224.48,239.1 362.16,545.76 479.09,848.47 C 893.99,35.385 921.85,558.89 964.63,1072.7 m -948.427,-2872 c -5.353,185.6 70.395,372.2 223.987,482 217,222.6 356.19,508.23 483.33,788.69 C 949.61,-22.444 996.6,536.1 1039,1081.7 l 2,19 m -950.797,-3038 c -30.796,215.1 -12.804,468.9 172.987,612.5 203.4,205.5 334.51,469.61 467.94,722.92 236.75,465.88 330.77,987.03 366.57,1504 4.6,52.21 9.2,104.38 14.4,156.58 m -942.91,-3018 c -35.95,217 -50.55,483.2 136.38,638.9 202.11,221.9 341.18,493.04 483.86,755.07 C 1040,-93.038 1145.1,439.22 1181,968.47 c 2.7,28.75 5.3,57.53 8.3,86.23 m -942.11,-3008 c -38.25,214.5 -69.43,477.4 108,641.4 183.61,216.5 315.6,471.7 458.39,716.02 254.22,447.69 397.02,952.11 436.92,1464.3 6.2,61.07 11.6,122.21 17.8,183.28 m -939.11,-3000 c -46.13,219 -84.82,489 94,661 162.67,215.6 286.52,458.12 427.92,687.81 263.69,446.08 435.69,946.64 479.79,1464.16 6.5,61.3 12.3,122.68 18.3,184.03 m -937.01,-2993 c -47.8,217.7 -100.66,484.1 68,665 160.35,246.8 302.68,505.45 455.02,757.49 259.19,432.309 434.69,916.67 481.59,1420.14 5.6,49.07 10.6,98.21 15.3,147.37 m -934.61,-2986 c -53.38,216.5 -113.44,480.9 43,670 156.75,277.6 315.82,554.32 481.21,827.14 262.7,434.5381 445.4,921.19 488.6,1429.6 l 3.1,28.36 3,27.9 m -933.71,-2980 c -58.66,223.9 -124.65,492.1 30.49,693.1 233.79,509.32 590.42,953.47 795.72,1476.87 103.1,258.31 163.9,531.75 192.4,808.03 m -934.01,-2976 c -60.51,225.2 -133.49,489.6 8.33,700.1 245.82,608.65 703.98,1111.15 897.78,1743.87 62.3,192.41 99.1,392.18 120.6,593.03 m -942.77,-3034 c -63.54,224.6 -139.71,485.1 -13.62,702.6 220.23,635.34 708.29,1136.684 917.79,1777.37 55.3,159.54 93.3,324.8 116.2,492.03 m -937.27,-2970 c -67.53,225.7 -144.32,482 -33.59,707.1 168.64,584.53 596.66,1041.54 843.46,1589.64 103.2,220.01 178.8,453.54 214.3,694.26 m -931.47,-3021 c -75.55,236.6 -163.67,501.2 -62.74,744.1 119.83,521.9 478.51,938.59 733.11,1397.17 153.4,268.19 282.5,554.33 339.1,859.73 m -939.57,-2967 c -78.47,234.3 -152.99,492.3 -65.5,735 83.97,462.78 382.97,842.14 621.77,1234.724 196,310.206 379.3,637.116 461.1,998.276 m -938.8,-2966 c -81.34,234.9 -155.17,490.9 -82.57,738 C 1048.5,-744.08 1325,-375.37 1553.7,-7.3264 1766.5,323.49 1983.7,660.89 2087.4,1044.7 m -931.9,-2975 c -82.4,232.5 -160.4,483.4 -103.5,731.3 27,434.48 286.8,803.22 510.5,1160.674 C 1785.6,307.9 2027,651 2154.7,1046.7 m -927.2,-2966 c -84.7,230.8 -157.5,477.4 -114.3,725.3 2.6,409.59 236.5,768.34 443.4,1105.438 233.9,370.232 501.8,725.702 658.6,1138.262 m -914.6,-2966 c -86.4,229.3 -158.6,473.5 -126.7,721 -19.8,392.36 191.5,745.81 385,1071.06 239,389.94 523.8,755.09 708.8,1175.94 m -895.8,-2965 c -91,231.5 -159,477.8 -138.4,728.6 -36.5,375.3 156.8,721.9 335.5,1037.37 238.8,406.03 533.8,778.57 742.8,1202.03 m -870.6,-2965 c -89.2,226.5 -160.1,466.1 -147.3,712 -59.7,371.69 121.9,725.3 293.8,1042.26 233.5,416.45 531.3,792.91 759.2,1212.74 m -838.2,-2964 c -93.6,228.9 -159.9,471.3 -157.4,720 -72.5,364.95 99,719.68 262.1,1035.66 225.7,419.96 518.3,798.6 759.2,1209.34 m -798.1,-2962 c -94.2,227 -160.8,467.1 -164.8,714 -90.1,357.81 70.7,717.11 224,1032.97 217,426.88 505.2,811.19 757.1,1217.03 m -751.9,-2960 c -89,217.6 -162.5,446 -167.6,683 -79.3,250.16 -28.9,517.38 58.9,758.13 200.9,552.377 555.2,1030.39 871.7,1519.87 m -700.4,-2958 c -93.9,222.5 -163.7,456.9 -176.7,699 -119.3,345.51 14.8,711.22 151.1,1030.13 196.2,435.59 465.9,832.51 729.8,1228.87 m -643.2,-2954 c -92.2,217.2 -163.3,445.5 -179.7,682 -77.3,202 -72.4,423.82 -19.3,631.22 153,601.505 503.6,1128.65 840.5,1640.78 m -582.1,-2950 c -93.8,217.9 -164.1,447 -185.4,684 -112,259.25 -68.7,551.22 11.2,812.85 163.7,523.24 451.4,997.44 751.6,1452.15 m -519.7,-2945 c -94,216.7 -164.5,444.4 -188.9,680 -92.9,204.6 -96.2,436.02 -48.9,652.97 126.6,584.11 432,1113.14 750,1612.03 m -456.1,-2941 c -95.1,215.9 -163.7,443.5 -192.5,678 -95.2,194.7 -107.2,417.35 -69.3,628.35 100.3,558.831 370.5,1069.74 658.2,1552.77 16.8,27.08 33.9,54.08 51.2,80.88 m -392.8,-2936 c -96.1,215.4 -163.8,442.3 -195.7,676 -99.7,193.1 -117.3,415.89 -84,628.35 91.3,575.4062 357.9,1105.58 646.8,1605.05 11.9,19.9 24.2,39.5 37.2,58.6 m -350.6,-2964 c -97.7,214.3 -163.2,441.6 -198.8,674 -92.1,173.2 -124.6,371.4 -103.6,565.97 56.7,552.013 292.2,1066.04 545.4,1552.98 25.4,46.28 50.4,92.85 77.7,138.05 m -268.3,-2927 c -98.3,213.6 -163.6,440.5 -201.5,672 -95.5,172 -132.6,370.26 -115.1,565.97 45.1,547.36 264.9,1062.42 504.1,1550.56 23.4,46.62 47.9,92.77 72.9,138.47 m -209.2,-2923 c -98.8,212.9 -163.7,439.4 -204.1,670 -87.9,158.1 -135.8,336.6 -126.9,518.48 19.5,538.11 221.6,1049.69 437.3,1536.05 30.7,66.51 62.4,132.6 96.4,197.47 m -152.8,-2918 c -99.2,211.9 -163.4,437.7 -206,667 -107.5,178.9 -148.6,389.02 -134.7,596.33 35,549.601 232,1074.09 450.1,1574.35 12.5,26.92 25,53.72 38.1,80.32 m -98.8,-2915 c -99.1,211.4 -162.5,436.8 -207.6,665 -104.3,169.3 -151.5,367.47 -144.9,565.97 17.4,556.874 206.9,1091.48 412.1,1603.57 11.7,27.26 23.5,54.46 35.6,81.46 m -47.6,-2912 c -99.7,210.3 -161.9,435.2 -208.8,662 -112.7,177.6 -160.6,387.86 -153.4,597.17 17.8,552.345 192.6,1085.39 385.7,1598.43 l 10.8,26.5 10.7,25.9 m 1.3,-2907 c -99.6,209.7 -161.4,434 -209.4,660 -115.6,176.8 -165.7,387.17 -161.8,597.33 8.8,549.23 173.4,1081.89 349.8,1597.27 l 9.9,26.5 9.8,25.9 m 51.4,-2914 c -102,211.7 -164,438.9 -214.3,667 -110.7,168.4 -166.6,366.71 -168.5,567.97 -7.8,547.24 147.6,1080.71 305.7,1599.4 8.8,26.93 18.1,53.73 27.1,80.63 m 108.8,-2944 c -108.5,220.8 -176.5,457.9 -229,697 -125.6,183.2 -177.5,404.78 -177.1,624.97 1.2,552.734 147.4,1094.78 300.3,1622.03 m 129.8,-2899 c -100.9,206.6 -158.8,429.4 -209.7,652 -128.2,184.4 -182.2,408.1 -183.8,630.72 -6.1,548.786 132.4,1088.56 268.3,1616.28 m 167.5,-2897 c -99.4,204.5 -157,424.8 -207.6,645 -109.4,163.8 -176.3,353.55 -186.3,551.16 -34.5,567.217 103.9,1126.56 226.3,1676.14 l 6.3,24.7 m 202.7,-2895 c -100.1,205 -157.3,426.4 -209.1,647 -130,185.1 -188.9,408.91 -195.1,633.35 -17.4,545.081 102.1,1084.46 209.4,1615.65 m 235.3,-2895 c -99.4,204.6 -156.5,425.2 -208.6,645 -123.9,177.3 -187.2,389.09 -197.7,604.33 -29.5,553.425 85.2,1103.45 180.2,1645.67 m 265.6,-2894 c -98.4,202.6 -155.2,420.9 -205.8,639 -117.5,171.1 -186.9,371.47 -200.8,578.97 -42.2,562.487 69.8,1123.07 151.3,1677.03 m 294.1,-2894 c -99.6,203 -154.5,422.8 -206.8,641 -147.1,203.79 -203.5,455.27 -211.8,702.97 -17.8,519.999 71.6,1036.82 136,1551.03 m 320.4,-2895 c -97.7,201.3 -154.2,418.2 -203.7,635 -101.8,154.1 -177.1,326.8 -197.5,512.24 -70.8,566.05 34.7,1133.7 87.6,1696.76 l 3,26.6 2.9,25.4 m 344.7,-2897 c -97.3,201 -153.3,417.6 -202.3,634 -112.4,167.8 -187.6,359.18 -206.1,561.56 -61.2,567.434 37.4,1136.94 77.6,1702.44 m 366.9,-2899 c -97,200.3 -151.8,416.4 -200.9,632 -104.1,159.3 -180.3,337.43 -202.4,528.1 -75.7,578.06 24.5,1161.77 51.4,1739.9 m 387.2,-2902 c -97.2,199.8 -150.2,416 -199.2,631 -112.1,170.3 -187.6,363.7 -208.9,567.56 -68.1,566.605 22.1,1137.28 37,1704.44 m 405.4,-2905 c -97.9,201 -149.4,418.9 -199.1,635 -125.5,184.1 -194.4,399.85 -215,620.92 -55.9,549.039 21.2,1100.47 25.9,1650.08 m 421.9,-2909 c -97,200.8 -148.6,418.2 -197.2,634 -123.7,186.4 -194.7,402.5 -215.5,624.92 -58.2,548.915 14.5,1101.06 8.7,1651.08 m 441.8,-2925 c -98.9,204.1 -152.3,425.1 -200.3,645 -109.8,173.5 -184.3,368.1 -208,572.99 -73.5,566.895 2.7,1139.96 -15,1709.01 m 450.9,-2921 c -96.5,199.2 -146.8,415.1 -191.9,630 -92.2,158.2 -171.7,326.37 -197.5,509.97 -95.1,589.16 -11.4,1189.15 -42.3,1782.03 m 463.3,-2928 c -96.1,201.4 -146.8,419.1 -191.9,636 -112.7,184.3 -186.5,390.6 -210.1,605.97 -69.7,560.005 -3.1,1126.25 -41.5,1688.03 m 474.6,-2936 c -96.9,201.4 -145.7,419.9 -190.2,637 -100.1,172.9 -176.7,360.98 -201.5,561.1 -83.3,575.744 -11.8,1160.75 -62.3,1738.9 m 484.3,-2945 c -94.7,200.7 -145.9,417.3 -186.6,634 -92.8,171.1 -172,351.9 -197.7,547 -90.4,584.24 -16.8,1179.34 -78.8,1766 m 421.5,-2776 c -63.7,153.8 -77.1,321.5 -122.2,479.9 -233.4,387.52 -227.3,856.36 -237.5,1293.663 -4.6,334.967 -0.3,671.187 -39.8,1004.437 m 429,-2788 c -63.5,155.1 -76.5,323.7 -120.8,483.4 -223.2,381.29 -224.5,837.14 -236.1,1265.574 -7.2,347.206 -2.4,696.206 -49.6,1041.026 m 435.4,-2801 c -62.9,156.7 -77,326.3 -119.5,487.9 -207.5,364.59 -220.7,795.1 -232.7,1203.683 -10.3,370.707 -4.8,743.707 -59.9,1111.417 m 394.5,-2667 c -46.2,151.5 -36.5,319.7 -125.2,457 -189.3,420.42 -165.1,894 -183.3,1344.52 -8.2,289.7 -14.4,581.05 -62.5,867.48 m 371.9,-2563 c -11.2,150.8 -62.5,290.1 -129.3,424.3 -167.1,467.7 -128.4,974.02 -155.1,1461.9 -9.5,227.04 -22.2,454.95 -63.4,678.8 m 360.6,-2488 c -16,195.4 -145.6,357 -173.3,550.62 -130.9,638.54 -38.6,1299.7 -163,1939.38 m 342.8,-2381 c -76.1,191.3 -153.8,384.87 -177.1,591.75 -84,594.17 -21,1202.04 -141,1792.25 m 311.4,-2297 c -212.9,487.51 -170,1032.06 -202.1,1550.97 -12.7,250.57 -29.2,502.62 -84.3,748.03 m 291.2,-2251 c -185.7,489.45 -143,1023.45 -177.5,1536.64 -13.6,240.54 -32.7,482.3 -88.2,717.36 m 245.6,-2119 c -155.5,597.74 -77.2,1223.35 -165.2,1830.53 -13.4,97.63 -30.2,194.97 -54.6,290.47 M 3051.3,-943.29 C 2912.4,-270.9 3020.5,430.14 2851.5,1098.7 M 3060.4,-849.29 C 2956.2,-203.81 3044.7,463.52 2878,1100.7 M 3061.6,-641.33 C 3005.4,-60.601 3058.5,535 2904.8,1103.7 M 3067.4,-242.33 C 3051,181.69 3053.6,611.7 2953.7,1026.7 m 99.9,-413.03 c -14.4,129.68 -33.4,259.12 -64.3,386 m 55.1,-118 c -8.1,40.5 -16.6,80.92 -26.5,121.03 m 28.6,2 -2,8 m -173.6,-2932 c 23.1,-0.2 45.8,6.6 69,6 m -2851.697,-33 c 381.847,-40.9 763.537,-97.8 1148.897,-91.4 497.9,-6.4 991.1,69.2 1479.6,157.1 90.7,13 182.2,24 274,20.3 m -2902.497,-32 c 598.227,-55.5 1201.797,-128.2 1801.997,-53 344.2,30.5 680.8,124.1 1026.4,138 m -2833.397,-33 c 556.977,-41.5 1116.197,-109.3 1674.997,-54.3 385.7,23.9 762.6,128.7 1149.1,138.3 m -2829.097,-33 c 555.647,-33.2 1112.797,-98.5 1669.597,-44.2 386,23.4 765.1,123.7 1152.1,127.2 m -2822.697,-35 c 542.907,-24.2 1086.697,-83.7 1630.297,-35.6 397.3,20.7 788.2,122.7 1186.8,118.6 m -2817.097,-37 c 551.187,-15.2 1103.097,-73.5 1654.397,-21.7 387.3,21.8 770,116.1 1159,104.7 m -2827.397,-40 c 533.207,-2.6 1066.597,-58.8 1599.697,-14 409.6,18.5 814.9,115.8 1225.8,98 m -2808.497,-43 c 515.557,5.7 1031.397,-44.7 1546.697,-4.1 410,16.8 816.2,107.2 1227.5,91 l 34.4,-2.9 m -2894.5967,-52 c 514.6767,30.3 1030.4967,-25.9 1545.3967,9.2 428,14 852.2,101.5 1281.1,87.8 l 35.4,-2.2 34.6,-3.8 m -2872.497,-56 c 506.507,35.9 1014.997,-12.1 1521.897,22.2 428.6,13.6 854.6,98.5 1284,76.8 l 35.5,-3.1 34.6,-3.9 m -2850.997,-59 c 515.987,41.6 1034.697,-1 1551.097,36.9 434.6,14.3 870.3,104.6 1305.1,55.1 m -2895.1961,-71 c 511.5961,61.6 1028.6961,18.9 1542.1961,54.9 441.3,14 882.9,96.3 1324.6,51.5 l 34.8,-5.4 m -2915.5967,-81 c 504.8867,74.7 1017.6967,36.9 1525.5967,71.4 448,13.8 896.7,91 1344.8,45.2 48.3,-7.2 96.4,-15.7 143.7,-27.6 m -3007.0964,-71 c 91.2824,24.5 251.3664,37.1 367.6164,45.6 562.84,28.2 1126.98,28.4 1688.98,75.2 288.5,15.1 581.2,43.5 867.8,-6.8 m -2930.3967,-100 c 195.7667,51.6 422.1367,56.6 631.4467,69.3 569.75,17.8 1138.85,48.1 1707.95,80.7 200,6.8 401.9,8 599.5,-28 M 2.2039,-1420.3 c 335.2861,76.3 684.0161,73.4 1026.3961,92.2 537.7,13.8 1074.1,73.9 1612.2,63.2 99.9,-4.1 200,-12.6 297.9,-33.4 m -2926.496,-105 c 386.936,84.3 786.706,81.6 1180.596,105.9 530.1,14.8 1061,82.9 1591.2,41.1 54.5,-7 109.3,-12.9 163,-25 m -2924.797,-107 c 347.927,79 708.597,82.1 1063.597,106 535,17.7 1070.1,76.8 1605.6,50.6 88.4,-6.5 176.7,-16.4 263.4,-34.6 m -2968.597,-117 c 372.027,89.2 757.957,93.3 1137.997,120.3 532,20.7 1064.9,77.3 1597.4,43.8 80.7,-6.4 161.3,-16.3 240.5,-33.1 m -2969.8967,-116 c 356.0667,85.4 725.4867,90.6 1089.1967,118.5 544.8,23.8 1090.7,78.4 1636.1,45.2 84.3,-6 168,-18.2 251,-33.7 m -2971.2964,-114 c 373.0564,85.2 758.6664,91.3 1138.9964,120 551,24.4 1104.2,81.9 1655.4,34 61.1,-6.8 122.3,-14.6 182.5,-27 M 2.2039,-1336.3 c 363.1561,82.7 738.5561,86.4 1108.4961,116.4 569.6,26.4 1141.8,84.3 1711.4,31.9 52.5,-6.3 105,-13.1 157,-23.3 M 6.2039,-1319.3 c 353.6261,79.7 718.9061,81.7 1078.8961,111.3 578.4,27.5 1159.3,84.9 1737.8,34 53.7,-6.2 107.5,-12.7 160.6,-23.3 m -2972.296,-103 c 370.746,79.4 752.566,78.8 1129.196,108.7 570.4,28.4 1143.6,81.7 1714,28.9 44.4,-5.4 88.7,-12.1 133,-18.6 m -2972.196,-100 c 370.626,79.1 752.596,73.7 1128.896,104.1 591.7,27.8 1187,86.2 1778.2,21.9 l 34.8,-4.6 33.9,-5.4 m -2971.797,-95 c 364.787,74.7 739.687,68 1109.597,97.5 598.1,26.7 1199.2,84.9 1796.9,24.5 41.9,-5.5 83.9,-10.1 125.2,-19 m -3027.697,-81 c 380.397,75.5 770.887,63.8 1156.197,93.8 593.9,25.9 1191,82.6 1784.4,20.1 l 34,-4.9 m -2969.597,-86 c 373.027,73.6 755.897,57.4 1133.497,86.5 612.1,26.4 1228,84.1 1839.5,20.5 m -2967.997,-83 c 386.457,74.4 782.617,53.1 1173.497,83.1 598.5,23.3 1200,79.8 1798.1,20.9 m -3056.597,-97 c 428.737,97.3 871.637,63.7 1306.997,97 583.7,21.9 1170,75.6 1753.4,22 m -3057.397,-93 c 415.507,94.5 844.377,59.5 1266.297,89.5 597.8,21.3 1197.3,75.43 1795.1,27.5 m -3058.397,-90 c 427.027,95.6 867.267,54.2 1300.497,85 587,20.5 1175.1,71.44 1762.3,30 m -3058.797,-87 c 438.337,94.9 889.097,51.5 1333.397,80 576.3,20.9 1153.6,68.52 1730.2,33.01 M -37.797,-1074.3 c 447.767,96.3 907.617,44.7 1360.997,75.76 567.6,17.82 1135.9,67.08 1703.8,34.25 M -32.797,-1045.3 c 450.377,95.62 912.557,42 1368.397,70.76 565.4,18.52 1131.3,65.28 1697.1,38.25 M -27.797,-1014.3 c 453.467,94.14 917.517,37.48 1375.997,64.76 563.3,17.52 1126.8,64.5 1690.6,42.25 m -3061.597,-76 c 439.617,90.06 888.717,37.58 1333.197,58.38 578.3,14.81 1156.2,66.68 1735,46.62 m -3062.197,-74 c 371.017,77.34 750.397,48.46 1126.197,50 648,7.23 1294.8,69.58 1943.2,55 m -3063.397,-73 c 478.557,95.5 967.157,26.12 1450.497,53 540.1,16.7 1079.7,60.22 1620.4,51 m -3063.8964,-71 c 357.9564,71.47 723.2864,48.83 1085.2964,43 662.8,-1.89 1323.7,66.59 1986.6,60 m -3064.8961,-69 c 385.1361,75.48 777.3061,42.34 1166.2961,38 611.9,3.54 1222.1,60.62 1834.1,63 m -2993.396,-68 c 365.206,70.24 737.216,46.95 1105.996,36.42 632.7,-5.41 1263.5,58.87 1896,64.58 m -2993.997,-66 c 340.617,58.02 687.007,52.27 1030.797,34.27 658.1,-15.26 1314.4,56.67 1972.2,64.69 M 25.203,-751.29 c 361.127,65.29 728.177,47.53 1092.297,30.75 638.4,-12.06 1275.1,56.84 1913.1,67.21 M 34.203,-716.29 c 373.537,66.44 752.847,44.47 1129.197,26.96 626.5,-9.57 1251,56.41 1877,71 m -2998.197,-62 c 365.607,61.16 736.587,46.37 1104.697,24.63 635.4,-15.87 1269.1,55.89 1903.9,71.37 m -2999.597,-61 c 384.427,65.49 774.567,42.41 1161.497,21 617.1,-10.97 1232.3,55.91 1848.6,76 m -3001.097,-60 c 377.147,60.95 759.377,42.99 1138.697,19.13 531.3,-17.09 1061.7,37.12 1591.9,62.87 m -2721.597,-46 c 395.487,63.94 796.337,40.69 1193.797,15 511.4,-11.24 1021.7,37.8 1531.9,66 m -2716.697,-44 c 395.107,61.82 795.267,40.25 1192.097,13.19 510.3,-15.94 1020,37.16 1529,65.81 m -2911.11,-72 c 435.67,79.7 880.78,85.72 1320.81,44.69 532.1,-27.06 1064.2,31.88 1594.9,62.31 m -2902.706,-69 c 440.936,80.95 891.656,83.19 1336.806,41.69 524.1,-27.25 1048.2,31.82 1570.8,63.31 m -2895.598,-66 c 435.908,75.67 880.848,83.53 1320.498,39.75 527.1,-33.09 1054.7,30.13 1580.2,62.25 m -2888.697,-63 c 452.947,77.44 914.877,80.19 1371.197,33.83 508.2,-27.21 1016.2,33.06 1522.8,65.17 m -2880.997,-60 c 458.437,78.32 926.037,78 1387.597,30.69 500.2,-27.74 1000.5,32.7 1498.9,66.31 m -2873.497,-58 c 464.137,77.8 937.317,76.23 1404.297,27.69 501.4,-27.66 1002.7,34.32 1502.1,70.31 m -2893.397,-58 c 469.967,76.66 948.717,74 1421.197,23.69 484.1,-26.41 968.5,33.7 1450.7,69.31 m -2858.897,-53 c 465.797,73.11 939.917,72.96 1407.997,22.75 486.2,-31.79 972.6,30.79 1456.8,67.25 m -2851.7967,-50 C 462.07,-141.7 942.13,-142.57 1416,-195.2 c 478,-30.67 955.8,31.8 1431.9,68.87 m -2844.6961,-48 c 475.7161,72.18 959.6661,70.16 1437.1961,16.63 471.9,-31.34 943.6,31.9 1413.5,69.374 M 17.203,-134.33 c 492.127,75.964 992.797,65.582 1486.497,11 452.8,-23.48 905.8,35.06 1356.3,74.004 M 4.2039,-97.326 C 512.54,-18.253 1029.9,-28.597 1539.9,-86.576 c 442.9,-22.634 885.6,37.963 1326.2,75.25 m -2821.897,-41 C 547.19,21.591 1058.1,8.9176 1562.1,-48.201 c 478.8,-22.612 958.1,45.5359 1434.1,88.875 m -2937.997,-52 C 565.51,62.156 1080.8,48.358 1588.8,-10.201 2019.5,-32.882 2450.1,28.747 2878.3,66.674 M -112.81,2.6736 C 455.42,100.63 1036.5,97.385 1607.8,28.424 2034,5.2108 2460.6,66.617 2884.3,105.67 M -104.81,43.674 c 574.18,97.906 1161.31,94.096 1738.31,23 419.7,-22.358 839.7,38.486 1256.7,78.996 M -96.806,84.674 C 485.08,184.01 1080.2,177.22 1664.8,104.67 c 411.2,-20.948 822.7,40.07 1231.3,80 m -2984.902,-58 C 501.09,225.41 1103.8,216.88 1696,143.42 c 402.5,-21.27 806,41.9 1205.8,81.25 m -2982.594,-57 c 597.504,101.1 1208.194,88.19 1807.894,13.88 394.2,-17.89 789,42.02 1180.3,83.12 m -3006.206,-59 c 613.686,104.27 1241.106,91.99 1857.106,14 386,-15.04 771.4,43.93 1154.6,84 m -2976.697,-52 c 612.767,101.4 1238.597,84.02 1853.097,6.88 377.5,-13.87 754.8,45.22 1129.4,85.12 m -2973.497,-49 c 626.427,102.18 1265.697,79.44 1893.297,0.75 362.8,-5.39 724.8,47.84 1084.7,88.25 m -2968.997,-47 C 588.67,440.72 1236.2,413.45 1871.7,333.78 c 353.4,-2.36 705.9,48.87 1056.3,89.89 m -2964.797,-44 C 598.19,482.18 1245.9,454 1881.7,374.55 c 351.7,-6.27 703.9,48.3 1052.3,90.12 m -2961.797,-42 C 614.47,525.2 1269.4,493.64 1912.2,413.17 c 345.1,-3.06 690.5,49.37 1032.5,92.5 m -2963.497,-39 c 649.917,100.96 1311.497,67.24 1961.397,-15 338.8,0.19 677,51.8 1012.6,95 M -8.7967,509.67 C 647.84,611.87 1316.2,572.18 1972.7,490.67 c 332.1,2.65 663.7,53.67 992.8,96 M 0.20359,553.67 C 664.12,655.3 1339.2,610.96 2002.6,529.17 c 325.6,7.47 650.1,54.13 972.7,98.5 m -2965.096,-30 c 680.526,103.62 1371.396,48.56 2050.996,-32 309,19.32 617,57.91 923.4,103 m -2963.397,-27 c 677.177,101.1 1364.497,45.96 2040.397,-35.5 311.7,13.11 622.9,58.6 932,102.5 m -2962.397,-23 c 692.457,103.73 1394.497,36.09 2085.597,-43 295.9,26.33 591.5,60.19 885.2,107 m -2959.797,-19 c 698.357,102.02 1405.497,28.47 2101.997,-50 288.3,31.13 579.1,60.16 865.9,110 m -2956.897,-15 c 704.127,99.08 1416.197,21.32 2117.997,-57 252.9,33.18 511.4,55.08 764.7,98.65 27.3,4.05 54.4,8.95 81.7,13.35 m -2952.397,-10 c 709.257,98.77 1425.797,11.17 2132.597,-64 126.4,27.98 273.4,26.57 406.5,50.34 140.5,18.55 280.5,39.95 420.2,63.66 m -2947.297,-5 c 714.467,97.27 1434.897,0.36 2146.697,-71 100.9,28.73 262.7,26.7 384.7,50.34 141.2,18.55 281.8,41.13 422.2,64.66 m -2940.597,1 c 719.177,96.03 1443.197,-10.36 2159.497,-79 73.7,30.14 252.5,27.04 362.8,50.34 141.7,19.58 283.2,41.09 424,66.66 m -3123.298,-23 C 644.58,1061.4 1390.1,956.76 2122,881.25 c 142,-28.67 186.3,8.27 333.9,17.42 196.1,22.52 391.3,53.2 585.6,88 M 117.19,1001.7 c 727.87,92.7 1459.51,-37.95 2182.81,-96.03 34,30.3 277.2,32.45 387.3,59.2 119.8,18.04 239.2,38.83 358.6,59.83 m -2914.71,23 C 863.43,1134.9 1595.3,997.41 2324,939.67 c -39.3,30.57 226.3,28.05 297.6,50.67 143.3,19.96 285.7,45.66 427.9,72.36 m -3022.297,14 C 715.42,1184.3 1408.1,1059.1 2094.2,996.99 c 85.1,4.81 218.1,-47.19 241.9,-7.32 240.4,24.43 479.4,62.13 716.4,109.03 m -1573,-2 c 297,-29.6 593.6,-67.4 891.2,-88 -88.6,29.3 233.1,32.8 305.3,57.3 69.6,10.8 138.9,23.2 208.3,35.7 m -1004.4,-14 c 170.9,-16.5 341.8,-36.7 513.2,-46 -159.6,20.4 116.4,22.2 255.2,53 m -584,7 c 104.9,-6.3 265.9,-29.7 342.3,-25 -150.5,10.4 65.7,19.3 88.1,27"
       style="fill:none;stroke:#00a450;stroke-width:5;stroke-opacity:0.62654;filter:url(#filter4141)" />
  </g>
</svg>
