<?xml version="1.0" encoding="UTF-8" standalone="no"?>
<svg
   xmlns:dc="http://purl.org/dc/elements/1.1/"
   xmlns:cc="http://creativecommons.org/ns#"
   xmlns:rdf="http://www.w3.org/1999/02/22-rdf-syntax-ns#"
   xmlns:svg="http://www.w3.org/2000/svg"
   xmlns="http://www.w3.org/2000/svg"
   version="1.1"
   id="svg2"
   viewBox="0 0 3000 3000"
   height="3000"
   width="3000">
  <defs
     id="defs4">
    <filter
       id="filter4142"
       style="color-interpolation-filters:sRGB">
      <feGaussianBlur
         id="feGaussianBlur4143"
         stdDeviation="10" />
      <feSpecularLighting
         result="result1"
         specularExponent="39.299999999999997"
         specularConstant="2"
         surfaceScale="5"
         id="feSpecularLighting4145"
         stdDeviation="12.6">
        <feDistantLight
           elevation="55"
           azimuth="269"
           id="feDistantLight4147" />
      </feSpecularLighting>
      <feComposite
         result="result2"
         k3="1"
         k2="1"
         operator="arithmetic"
         in="SourceGraphic"
         in2="result1"
         id="feComposite4149" />
      <feComposite
         operator="in"
         in="result2"
         in2="SourceGraphic"
         id="feComposite4151" />
    </filter>
  </defs>
  <metadata
     id="metadata7">
    <rdf:RDF>
      <cc:Work
         rdf:about="">
        <dc:format>image/svg+xml</dc:format>
        <dc:type
           rdf:resource="http://purl.org/dc/dcmitype/StillImage" />
        <dc:title></dc:title>
      </cc:Work>
    </rdf:RDF>
  </metadata>
  <path
     style="fill:none;stroke:#1858a4;stroke-width:15;stroke-miterlimit:4;stroke-dasharray:none;stroke-opacity:0.354;filter:url(#filter4142)"
     d="m 2129.2,-52.55 c -172.8,14.5 -346,20.625 -519.2,22.798 -173.3,2.174 -346.7,0.396 -520,-0.911 -173.37,-1.306 -346.7,-2.14 -519.82,1.921 C 397.06,-24.681 224.14,-15.725 51.591,2.55 45.691,3.375 39.797,4.225 33.908,5.0984 28.019,5.9719 22.135,6.8687 16.253,7.7875 10.372,8.7063 4.4941,9.6469 -1.3824,10.608 -7.259,11.569 -13.134,12.55 -19.009,13.55 M 2194.4,-36.85 C 2020.2,-21.375 1845.6,-13.631 1670.9,-9.6375 1496.2,-5.6438 1321.4,-5.4 1146.5,-4.925 971.72,-4.45 796.92,-3.7438 622.32,1.175 447.72,6.0937 273.31,15.225 99.29,32.55 88.615,34 77.947,35.512 67.286,37.094 56.625,38.675 45.972,40.325 35.328,42.05 24.685,43.775 14.05,45.575 3.4269,47.456 -7.1965,49.338 -17.809,51.3 -28.409,53.35 M 2172.2,-15.25 C 2000.9,0.125 1829.3,8.2875 1657.6,13.058 1485.8,17.828 1313.8,19.206 1141.9,21.012 970.04,22.819 798.18,25.053 626.55,31.536 454.93,38.019 283.54,48.75 112.59,67.55 M 2492.6,-15.35 C 2315.8,0.05 2138.8,11.3 1961.7,20.041 1784.5,28.781 1607.3,35.012 1430,40.375 1252.7,45.738 1075.4,50.231 898.06,55.497 720.77,60.763 543.52,66.8 366.39,75.25 c -21.93,1.775 -43.84,3.713 -65.73,5.839 -21.9,2.127 -43.77,4.442 -65.62,6.974 -21.85,2.531 -43.68,5.278 -65.47,8.267 -21.79,2.989 -43.56,6.22 -65.28,9.72 M 3001.2,-6.45 c -172.1,-0.1 -343.9,5.4875 -515.6,13.8828 -171.7,8.3952 -343.4,19.5982 -515,30.7302 -171.6,11.131 -343.2,22.19 -515,30.298 M 939.89,81.05 C 869.56,82.7 799.17,84.575 728.79,87.195 658.42,89.816 588.06,93.181 517.8,97.813 447.55,102.44 377.39,108.34 307.43,116.02 237.46,123.71 167.69,133.17 98.19,144.95 M 2978.4,17.45 c -170,-0.525 -339.8,4.725 -509.4,12.961 -169.7,8.236 -339.2,19.458 -508.7,30.876 M 1451.6,93.345 C 1282,102.37 1112.2,108.8 942.19,109.85 c -70.92,2.27 -141.92,4.8 -212.88,8.13 -70.96,3.34 -141.9,7.48 -212.69,12.99 -70.8,5.52 -141.47,12.4 -211.91,21.21 -70.44,8.81 -140.64,19.54 -210.52,32.77 M 2956.8,41.45 C 2785,40.975 2613.4,46.256 2442,54.623 2270.6,62.991 2099.3,74.444 1928,86.313 M 1414,120.5 c -171.4,10.03 -342.9,17.8 -514.61,20.65 -67.65,2.92 -135.37,6.19 -203.05,10.3 -67.67,4.11 -135.31,9.06 -202.8,15.37 m -201.9,23.52 c -67.08,9.53 -133.9,20.94 -200.35,34.71 M 2935.1,65.95 c -172.1,-0.675 -343.9,4.537 -515.6,13.02 -171.6,8.483 -343.2,20.236 -514.7,32.64 -171.5,12.41 -343,25.47 -514.5,36.56 -171.6,11.1 -343.3,20.23 -515.21,24.78 -73.55,3.87 -147.23,8.22 -220.82,13.79 m -220.35,21.08 c -73.24,8.74 -146.2,19.44 -218.67,32.83 -72.47,13.39 -144.459,29.47 -215.759,49 M 2915.6,90.65 c -171.4,-0.775 -342.6,4.363 -513.6,12.91 -171,8.54 -341.8,20.49 -512.7,33.34 -170.8,12.85 -341.6,26.6 -512.4,38.74 -170.9,12.15 -341.9,22.68 -513.01,29.11 -64.98,4.2 -130.01,8.84 -194.98,14.4 -64.97,5.57 -129.87,12.07 -194.57,19.99 -64.7,7.92 -129.2,17.26 -193.37,28.51 -64.17,11.26 -128.01,24.42 -191.38,40 M 3022.2,123.15 c -170.8,-8.33 -341.3,-7.62 -511.7,-1.45 m -510.6,31.31 c -170.2,13.52 -340.2,28.93 -510.4,42.66 -170.1,13.73 -340.3,25.78 -510.7,32.58 -74.53,4.97 -149.16,10.33 -223.72,16.75 -74.56,6.43 -149.04,13.91 -223.28,23.15 -74.23,9.24 -148.21,20.22 -221.75,33.65 -73.55,13.42 -146.66,29.28 -219.16,48.25 M 3003.7,148.45 c -166.1,-8.5 -331.8,-8.06 -497.4,-2.1 -165.6,5.95 -331,17.43 -496.4,31.01 m -992.2,79.39 c -77.68,5.78 -155.48,11.93 -233.19,19.22 -77.72,7.3 -155.34,15.74 -232.67,26.09 -77.32,10.36 -154.35,22.63 -230.86,37.59 -76.52,14.96 -152.52,32.6 -227.79,53.7 M 3024.1,177.75 c -156.5,-10.9 -312.7,-12.55 -468.8,-8.28 -156.1,4.28 -312,14.47 -467.9,27.27 -155.9,12.79 -311.7,28.18 -467.5,42.84 -155.7,14.66 -311.5,28.6 -467.3,38.47 -99.3,8.6 -199.21,16.54 -299.03,25.9 m -593.3,89.68 c -97.12,23.3 -192.954,52.15 -286.879,88.62 M 3006.7,203.35 c -167.4,-10.85 -334.5,-11.71 -501.4,-6.18 -166.9,5.54 -333.7,17.47 -500.3,32.2 -166.6,14.74 -333.1,32.29 -499.6,49.05 m -499.6,44.33 c -86.78,8.03 -173.87,16.64 -260.79,27.13 -86.92,10.48 -173.66,22.83 -259.72,38.31 -86.06,15.48 -171.45,34.09 -255.67,57.11 -84.21,23.02 -167.254,50.45 -248.629,83.55 M 2490.3,223.77 c -166,5.79 -331.8,18.07 -497.5,33.37 -165.7,15.29 -331.3,33.59 -496.9,51.42 -165.5,17.83 -331,35.19 -496.5,48.59 -85.73,8.85 -171.75,18.39 -257.56,29.87 -85.81,11.48 -171.4,24.9 -256.25,41.49 -84.85,16.6 -168.96,36.37 -251.82,60.56 -82.85,24.19 -164.454,52.8 -244.279,87.08 M 2973.9,255.55 c -167.3,-10.5 -334.4,-10.92 -501.2,-4.68 -166.7,6.24 -333.3,19.14 -499.7,35.27 -166.4,16.13 -332.6,35.49 -498.8,54.67 -166.1,19.18 -332.2,38.16 -498.3,53.54 -83.23,9.65 -166.74,20.1 -249.99,32.53 m -248.44,44.44 c -82.2,17.59 -163.61,38.35 -243.69,63.46 -80.07,25.11 -158.814,54.57 -235.689,89.57 M 2061.4,305.55 c -161.2,15.55 -322.3,35.01 -483.2,54.51 -160.9,19.49 -321.7,39.01 -482.4,54.69 -92.6,11.07 -185.62,22.7 -278.39,36.43 M 540.57,500.21 C 448.99,519.69 358.35,542.83 269.31,571.17 180.27,599.51 92.841,633.05 7.691,673.35 M 1093,450.45 c -91.8,12 -183.97,24.62 -275.87,39.4 -91.9,14.79 -183.51,31.74 -274.1,52.4 -90.6,20.66 -180.18,45.04 -268.04,74.67 -87.86,29.64 -174,64.53 -257.699,106.23 M 3001.2,342.85 c -496.7,-42.84 -984,18.63 -1453,83.04 -160.8,22.1 -321.4,44.79 -481.7,64.36 -88.98,12.78 -178.32,26.38 -267.32,42.23 -89,15.85 -177.66,33.95 -265.25,55.7 M 275.04,665.81 C 190.28,696.28 107.29,731.82 26.791,773.85 M 2988.2,369.25 c -163.2,-14.1 -326.1,-16.5 -488.7,-10.8 -162.5,5.7 -324.9,19.51 -486.9,37.81 -162,18.31 -323.8,41.12 -485.3,64.83 -161.5,23.72 -322.7,48.34 -483.7,70.26 -86.38,13.6 -173.1,28.12 -259.44,44.93 -86.34,16.8 -172.29,35.88 -257.12,58.58 -84.82,22.71 -168.52,49.04 -250.36,80.36 -81.84,31.31 -161.81,67.6 -239.189,110.23 M 2975,395.85 c -164.1,-13.48 -327.9,-15.18 -491.3,-8.63 -163.4,6.55 -326.5,21.34 -489.3,40.84 -162.8,19.51 -325.2,43.73 -487.4,69.14 -162.1,25.41 -323.9,52 -485.4,76.25 -83.95,14.52 -168.19,30.12 -251.98,48.03 M 520.3,683.34 C 438.12,707.08 357.11,734.36 277.98,766.4 198.85,798.44 121.62,835.25 46.991,878.05 M 3013.5,429.55 c -157.6,-17.05 -315,-21.39 -472.2,-16.82 -157.1,4.57 -314,18.06 -470.6,36.67 -156.5,18.61 -312.8,42.35 -468.6,67.42 -155.9,25.07 -311.4,51.48 -466.4,75.43 m -304.12,59.09 c -101.57,21.75 -202.8,46.38 -301.99,76.4 M 239.82,836.47 C 146.4,879.76 56.691,930.94 -27.609,992.5 M 2949.8,449.55 c -163.5,-11.87 -326.7,-12.08 -489.4,-3.9 -162.7,8.18 -325,24.76 -486.9,46.44 m -965.6,165.16 c -89.4,18.43 -179.64,37.93 -269.31,60.33 -89.68,22.41 -178.8,47.73 -265.99,77.79 -87.18,30.06 -172.42,64.86 -254.33,106.24 M 2450.2,475.33 c -162.4,9.13 -324.3,26.7 -485.7,49.56 -161.4,22.85 -322.3,50.99 -482.6,81.26 -160.4,30.26 -320.2,62.65 -479.5,94 -90.03,20.17 -181.01,41.44 -271.39,65.74 -90.37,24.29 -180.14,51.61 -267.73,83.88 -87.6,32.27 -173.02,69.5 -254.7,113.61 M 2562.9,497.75 c -153,4.88 -305.6,19.38 -457.8,39.71 M 1650,612.15 c -151.2,28.19 -301.8,58.43 -451.7,86.9 -101.5,21.82 -203.77,44.52 -305.51,70.15 -101.74,25.62 -202.91,54.18 -302.07,87.74 -99.17,33.56 -196.32,72.12 -290.04,117.74 m -269.389,160.12 -5.375,4.5 -5.375,4.5 -5.375,4.6 -5.375,4.5 -5.2,4.7 -5.2,4.7 -5.2,4.8 -5.2,4.7 M 3011.5,542.05 c -155.9,-17 -311.5,-20.49 -466.6,-14.2 -155.2,6.29 -310,22.36 -464.2,44.5 -154.3,22.14 -308,50.34 -461,80.88 -153.1,30.54 -305.5,63.42 -457.1,94.92 -101.8,24.08 -204.79,49.08 -307.15,77.28 C 753.08,853.62 651.34,885.01 552,921.82 452.67,958.64 355.76,1000.9 263.05,1050.8 170.35,1100.8 81.866,1158.4 -0.609,1226 M 3001.5,568.45 c -156.1,-15.83 -311.8,-18.21 -467.1,-10.75 -155.2,7.45 -310,24.74 -464.1,48.25 m -460.5,85.6 c -152.7,32.36 -304.8,67.32 -456,101.3 -100.5,25.33 -201.89,51.81 -302.59,81.46 C 750.51,903.97 650.52,936.79 552.9,974.79 455.28,1012.8 360.03,1056 268.8,1106.3 177.56,1156.7 90.341,1214.2 8.791,1281 M 2991.7,594.65 c -157.8,-14.62 -315.2,-15.66 -471.9,-6.67 -156.8,9 -313,28.01 -468.4,53.47 m -464.1,92.17 c -153.9,34.79 -307,72.46 -459.1,109.43 -98.1,26.26 -196.69,54.07 -294.43,85.05 -97.75,30.98 -194.63,65.13 -289.27,104.1 -94.63,39 -187.01,82.8 -275.74,133 M 2981.9,620.95 c -156.4,-13.23 -312.3,-13.05 -467.6,-2.92 -155.2,10.13 -309.8,30.21 -463.5,56.79 m -912.3,210.03 c -98.6,27.96 -197.54,57.55 -295.59,90.24 M 552.78,1084 c -94.95,40.4 -187.69,85.4 -276.95,136.5 M 2973.1,646.85 c -159.9,-11.65 -319.2,-9.67 -477.6,2.53 m -940,168.72 c -154.7,39.5 -308.3,82.44 -460.8,125.4 -94.85,28.83 -189.67,59.5 -283.46,93.2 -93.78,33.7 -186.55,70.4 -277.3,111.2 M 268.72,1283.8 C 182.98,1333.9 100.24,1389.3 21.491,1451 M 2489.1,679.87 c -157.2,13.61 -313.5,37.39 -468.8,68.05 m -462.5,109.32 c -153.1,41.13 -305.1,85.85 -455.8,130.86 -95.5,30.6 -190.7,63.1 -284.89,98.6 -94.18,35.4 -187.31,73.8 -278.53,116 -91.22,42.2 -180.53,88.3 -267.08,139.1 -86.55,50.9 -170.33,106.5 -250.509,167.8 M 2476.8,711.33 c -158.7,15.6 -316.2,41.52 -472.7,74.53 -156.4,33 -311.7,73.08 -465.7,116.99 -154,43.9 -306.7,91.64 -458,139.95 M 801.04,1145.7 C 708.75,1182.5 617.51,1222 528,1264.9 m -262.66,139.6 c -85.37,50.4 -168.349,105 -248.249,164.4 M 2575.1,730.97 c -150.7,11.68 -300.5,34.4 -449.2,64.42 -148.7,30.03 -296.4,67.35 -442.9,108.21 -146.5,40.87 -291.7,85.29 -435.6,129.5 m -324.24,116.5 c -107.11,41.7 -213.02,86.6 -317.04,135.4 m -305.75,158.4 c -99.59,57.1 -196.6,118.7 -290.379,185.5 M 2552.2,762.73 c -155.6,14.56 -310,40.57 -463.2,74.24 -153.2,33.67 -305.2,75.01 -455.7,120.24 -150.6,45.19 -299.7,94.39 -447.3,143.59 -104,37.5 -207.3,77.4 -309.43,120.1 -102.12,42.7 -203.08,88.2 -302.49,136.8 M 280.94,1513.2 C 185.06,1568.3 91.141,1626.9 -0.409,1689.3 M 3014.4,781.35 c -156.8,-9.92 -312.6,-4.92 -467.2,11.38 -154.5,16.3 -307.8,43.89 -459.8,79.12 -152,35.23 -302.6,78.11 -451.7,124.98 -149.2,46.87 -296.9,97.77 -442.9,148.97 -105.5,39.8 -210,82.1 -313.42,127 M 572.8,1415.6 C 471.91,1465.9 372.39,1519 274.5,1574.9 176.6,1630.7 80.316,1689.4 -14.109,1751.1 M 3006.9,805.25 c -159.6,-7.65 -318,-0.16 -474.9,18.82 -156.9,18.97 -312.4,49.43 -466.3,87.72 -154,38.28 -306.4,84.4 -457.3,134.71 m -447.5,159.7 c -103.6,41.5 -206.18,85.5 -307.7,131.8 m -301.35,145.6 c -99.37,50.7 -197.64,103.6 -294.8,158.5 C 159.9,1697 63.866,1753.9 -31.009,1812.6 M 2999.3,828.85 c -162.3,-5.17 -323,4.96 -482,26.74 -159.1,21.78 -316.5,55.2 -472.3,96.6 -155.7,41.4 -309.8,90.81 -462.1,144.51 M 1131.3,1267 c -98.6,41.7 -196.1,85.5 -292.76,131.3 -96.66,45.7 -192.42,93.3 -287.4,142.5 -94.97,49.1 -189.16,99.8 -282.67,151.8 -93.5,51.9 -186.329,105 -278.579,159 M 2992.8,852.05 c -161.3,-2.82 -320.8,9.42 -478.5,33.15 m -468,102 c -154.2,43.1 -306.6,94 -457.3,149.3 m -446.5,175 c -93.3,40.7 -185.61,83.2 -277.23,127.3 -91.62,44.1 -182.51,89.7 -272.82,136.5 M 2986.3,874.65 c -164.5,0 -326.9,15.36 -487.4,42.35 m -475.4,112.3 c -156.5,46.6 -311,101.3 -463.7,160.3 -152.6,59 -303.3,122.4 -452.2,186.4 -92.2,42.2 -183.57,86.1 -274.29,131.3 -90.71,45.1 -180.79,91.6 -270.49,138.8 -89.7,47.2 -179.02,95.1 -268.21,143.3 -89.19,48.2 -178.24,96.7 -267.419,144.8 M 2980,896.75 c -169.2,3.25 -335.9,22.22 -500.4,53.13 -164.5,30.91 -326.6,73.82 -486.7,124.82 -160,51 -317.8,110.2 -473.7,173.9 -155.8,63.6 -309.6,131.6 -461.5,200.3 -90.1,43.1 -179.4,87.8 -268.22,133.4 m -265.29,139.1 c -88.15,46.8 -176.12,94.1 -264.24,141 -88.11,47 -176.359,93.7 -265.059,139.5 M 2465.3,982.15 c -167.1,34.55 -331.7,81.15 -493.9,135.95 m -480,185.3 c -157.8,67.5 -313.5,139.4 -467.3,211.8 -79.9,39.5 -159.28,80 -238.35,121.2 m -236.5,124.8 c -78.67,42 -157.24,84.1 -235.95,126 -78.7,41.8 -157.54,83.4 -236.71,124.4 M 2968.1,939.95 c -175.8,10.06 -348.4,36.28 -518.2,74.65 -169.9,38.4 -336.9,89 -501.4,147.9 -164.6,58.8 -326.7,125.9 -486.6,197.2 M 750.91,1706 c -78.8,41.8 -157.37,83.9 -235.98,126 -78.61,42.1 -157.24,84.1 -236.15,125.6 M 2962.9,961.1 c -180.6,13.75 -357.7,44.2 -531.6,87.1 -173.9,42.9 -344.6,98.3 -512.8,162 -168.1,63.7 -333.6,135.7 -496.9,211.7 -163.4,76 -324.6,156.1 -484.11,236.1 -77.98,40.7 -155.61,81.9 -233.14,123.4 -77.53,41.5 -154.95,83.2 -232.5,124.7 M 238.63,2029.3 C 160.61,2069.8 82.241,2109.7 3.291,2148.4 M 2957.6,981.6 c -184,17.62 -363.8,52.2 -540.4,99.2 -176.5,47.1 -349.6,106.7 -519.9,174.5 -170.4,67.8 -338,143.7 -503.6,223.5 -165.5,79.7 -329,163.3 -491.01,246.3 -76.42,40.6 -152.61,81.7 -228.8,122.8 -76.18,41.1 -152.36,82.2 -228.76,122.9 -76.41,40.7 -153.04,80.9 -230.14,120.2 -77.09,39.4 -154.649,77.8 -232.899,114.9 M 3027.2,995.7 c -185.1,15 -365.9,48.2 -543.1,94.8 -177.2,46.6 -350.8,106.6 -521.6,175 -170.8,68.5 -338.7,145.4 -504.6,226.1 -165.9,80.6 -329.7,165 -492.21,248.1 -74.93,39.8 -149.64,80.1 -224.32,120.3 -74.68,40.3 -149.34,80.7 -224.14,120.7 M 3022.1,1013.2 c -187.1,19.3 -369.6,56.7 -548.2,107.3 -178.7,50.6 -353.5,114.4 -525.5,186.3 -172,72 -341.2,152.2 -508.3,235.8 -167.2,83.5 -332.5,170.3 -496.71,255.5 m -228.24,123.5 c -76.05,41.2 -152.14,82.4 -228.47,123.1 -76.33,40.6 -152.91,80.9 -229.92,120.2 -77.01,39.4 -154.47,77.9 -232.569,115.2 M 3018,1030.1 c -189.8,23.8 -374.5,65.7 -555.2,120.6 m -1044.9,444.8 c -169.1,86.6 -336.4,176.2 -503.11,263.6 m -230.95,125.6 c -77.03,41.7 -154.18,83.3 -231.64,124.3 -77.45,41 -155.22,81.4 -233.49,120.7 -78.27,39.4 -157.044,77.8 -236.519,114.8 M 1370.5,1661.6 c -173.8,91.6 -346.1,185.4 -518.21,276.2 -61.63,33.7 -123.26,67.3 -185,100.8 -61.75,33.5 -123.59,66.8 -185.64,99.7 -62.04,32.9 -124.28,65.5 -186.81,97.5 -62.53,32 -125.35,63.4 -188.55,94.1 M 3010.1,1061.5 c -197.1,34.2 -388.3,86.3 -575,151.1 -186.7,64.9 -368.9,142.3 -548.3,227.1 m -531.2,270.6 c -175.3,93.9 -349.2,189.6 -523.41,281.9 -69.12,37.8 -138.31,75.6 -207.67,113 -69.37,37.4 -138.9,74.6 -208.73,111.1 -69.82,36.6 -139.94,72.6 -210.45,107.8 -70.51,35.2 -141.424,69.6 -212.849,103 M 2417.4,1245 c -191,70.6 -377.4,153.8 -560.9,243.8 -183.5,90.1 -364.2,187 -544,285.1 m -538.11,292.4 c -61.85,33.8 -123.8,67.5 -185.92,100.8 -62.13,33.3 -124.43,66.3 -186.98,98.9 -62.55,32.5 -125.35,64.5 -188.47,95.9 -63.13,31.4 -126.579,62.2 -190.429,92.1 M 3002.3,1090.1 c -199,44.1 -391.6,105.3 -579.6,178.2 m -552.3,248.1 c -180.8,90.8 -359,187.8 -536.5,285.6 -177.4,97.8 -354.18,196.4 -532.11,290.4 m -203.08,110.2 c -67.87,36.4 -135.94,72.5 -204.32,107.9 -68.37,35.5 -137.05,70.4 -206.12,104.5 -69.07,34 -138.529,67.3 -208.479,99.6 M 2999.5,1103.4 c -201,49.6 -395.5,115.9 -585.4,193.3 -189.8,77.4 -375.1,166 -558,260.4 -182.8,94.3 -363.1,194.4 -543,294.7 -179.8,100.4 -359.26,201.1 -540.31,296.6 -47.05,25.6 -94.17,51.1 -141.38,76.5 m -141.91,75.4 c -47.4,25 -94.92,49.7 -142.56,74.2 -47.65,24.5 -95.43,48.8 -143.35,72.7 M 2995.7,1116 c -202.4,55.2 -398.1,126.5 -589.2,208.3 -191.1,81.8 -377.7,174.2 -561.9,271.8 -184.3,97.5 -366.3,200.3 -548.1,302.7 -181.9,102.4 -363.63,204.6 -547.51,301.1 -48.2,26.2 -96.49,52.2 -144.88,78.1 -48.39,25.8 -96.89,51.5 -145.51,76.9 m -146.24,75.4 c -48.88,24.9 -97.9,49.5 -147.07,73.8 M 2993,1127.9 c -198.1,59 -389.7,132.8 -577,216.2 -187.3,83.4 -370.4,176.4 -551.4,274 -180.9,97.5 -359.8,199.6 -538.8,301.2 -178.9,101.5 -358.03,202.4 -539.41,297.7 -65.98,36 -132.11,71.8 -198.46,107.1 -66.35,35.4 -132.91,70.4 -199.76,104.8 -66.85,34.4 -133.99,68.2 -201.46,101.4 -67.48,33.2 -135.294,65.7 -203.519,97.3 M 2990.3,1139.1 c -200.4,65.3 -394.3,144.6 -584,232.9 -189.8,88.3 -375.3,185.6 -559,286.9 -183.7,101.3 -365.5,206.5 -547.7,310.6 m -550.31,304.1 c -55.88,30.5 -111.88,60.7 -168.04,90.6 -56.17,29.9 -112.51,59.5 -169.06,88.6 -56.55,29.2 -113.31,58 -170.33,86.2 -57.02,28.2 -114.29,56 -171.869,83.1 M 1849.6,1688.7 c -183.3,103.1 -365,209.5 -547.4,314.3 m -551.51,305.2 c -57.6,31.3 -115.35,62.3 -173.28,93 -57.92,30.6 -116.03,61 -174.33,90.9 -58.31,29.9 -116.82,59.4 -175.56,88.5 -58.74,29.1 -117.7,57.7 -176.929,85.7 M 2410.9,1414.6 c -186.9,93.8 -370.2,195.1 -552,299.1 -181.9,104.1 -362.4,210.9 -543.8,315.8 m -549.31,304.6 c -61.95,33.5 -124.06,66.8 -186.35,99.6 m -187.42,97.6 c -62.67,32.2 -125.52,64 -188.59,95.4 C 140.37,2658 77.091,2689 13.591,2719.5 M 2982.4,1169.2 c -196.4,80.1 -387.1,171.3 -574.5,269 m -554.2,308.3 C 1670.8,1852.9 1489,1961.4 1306,2067.7 1123.1,2174 938.92,2278 751.29,2375.3 c -63.7,34.5 -127.6,68.5 -191.71,102.2 m -192.98,99.8 c -64.54,32.9 -129.31,65.3 -194.3,97.2 -65,31.9 -130.234,63.4 -195.709,94.3 M 2979.9,1178.3 c -195.9,85.9 -386.6,181.6 -574.3,283 -187.6,101.4 -372.3,208.5 -556.1,317 -183.9,108.6 -366.9,218.7 -551.4,326.1 m -560.11,310.2 c -54.67,29.5 -109.49,58.7 -164.45,87.6 m -165.32,85.9 c -55.27,28.3 -110.69,56.3 -166.27,84 -55.58,27.7 -111.33,55.1 -167.26,82.1 M 2402.3,1484.7 c -188.3,105.2 -373.9,215.1 -559,326 -185.1,110.9 -369.8,222.7 -556.1,331.3 -186.4,108.7 -374.51,214.3 -566.51,312.9 -56.4,30.2 -112.94,60.1 -169.64,89.8 -56.69,29.7 -113.53,59 -170.52,88.1 -57,29.1 -114.14,57.9 -171.45,86.3 -57.3,28.5 -114.764,56.6 -172.389,84.4 M 2975.7,1196.9 c -189.2,93.7 -374.3,194.7 -557.1,299.8 -182.8,105 -363.4,213.9 -543.8,323.3 -180.4,109.4 -360.5,219.3 -542.4,326 -181.8,106.8 -365.46,210.5 -552.81,307.6 -63.3,34.2 -126.78,68 -190.45,101.4 -63.67,33.4 -127.52,66.5 -191.57,99.2 -64.05,32.7 -128.3,65 -192.74,96.9 -64.45,31.9 -129.089,63.4 -193.939,94.5 M 2406.1,1524.7 c -186.5,110.6 -371.1,224.4 -555.9,337.9 m -556.9,336.2 c -187.1,109.5 -376.31,215.2 -569.71,313.8 -61.23,32.7 -122.62,65 -184.18,97 -61.56,32 -123.29,63.6 -185.19,95 -61.9,31.3 -123.97,62.3 -186.21,92.9 -62.24,30.7 -124.644,61 -187.219,91 M 2970.5,1215.6 c -184.6,102 -366,209.4 -546.1,319.1 -180.1,109.7 -358.8,221.7 -537.9,333.1 m -540.2,328.9 c -181.7,107 -365.48,210.3 -553.21,306.9 -43.77,23.5 -87.63,46.9 -131.57,70.1 -43.94,23.2 -87.95,46.3 -132.05,69.2 -44.1,22.9 -88.29,45.6 -132.55,68.2 -44.26,22.5 -88.6,44.9 -133.03,67.2 M 2418.2,1559.9 c -181.9,113.8 -362.9,229 -544.6,342.9 -181.8,113.9 -364.3,226.4 -549.2,334.9 m -563.51,310.6 c -35.4,18.9 -70.86,37.7 -106.37,56.4 -35.51,18.7 -71.07,37.2 -106.68,55.7 -35.61,18.5 -71.28,36.9 -106.98,55.2 -35.71,18.3 -71.47,36.6 -107.27,54.7 m 2631.61,-1533 c -181.7,111.5 -361.5,225.9 -541.1,340.9 -179.5,115.1 -358.7,230.7 -539,344.6 m -545.3,333.7 C 1156,2364.4 969.67,2468 779.49,2565.1 c -66.05,35.2 -132.29,70 -198.72,104.5 M 380.94,2772 c -66.79,33.8 -133.75,67.2 -200.88,100.3 -67.13,33.1 -134.419,65.9 -201.869,98.3 M 2961.3,1250.3 c -184.5,119 -368.2,239.8 -552.1,360.2 -183.9,120.4 -368.2,240.4 -553.9,357.9 -185.7,117.5 -373,232.4 -562.9,342.8 -190,110.3 -382.68,216 -579.31,314.9 -55,28.8 -110.12,57.4 -165.36,85.8 -55.24,28.3 -110.6,56.5 -166.05,84.4 -55.46,27.9 -111.02,55.6 -166.67,83.2 -55.65,27.5 -111.39,54.9 -167.219,82.1 M 2958.5,1265 c -121.8,79.2 -242.4,160.2 -362.8,241.6 -120.4,81.4 -240.5,163.2 -361.2,244.1 m -364.4,239 c -122.6,77.9 -246.6,153.7 -372.8,226 -112.5,66.3 -225.7,131.4 -339.6,195.1 -114,63.7 -228.6,126.2 -343.87,187.5 -115.27,61.3 -231.17,121.4 -347.61,180.5 -116.45,59 -233.45,116.9 -350.93,173.8 M 3014.8,1241.3 C 2842.9,1359 2671.3,1477.7 2499,1595.4 m -520.1,348.1 c -174.8,113.8 -351.4,224.7 -530.8,330.8 -179.4,106.2 -361.7,207.6 -547.91,302.3 -67.4,35.9 -135.01,71.3 -202.79,106.4 -67.79,35.1 -135.75,69.8 -203.87,104.2 -68.12,34.5 -136.39,68.6 -204.79,102.5 -68.4,33.9 -136.92,67.5 -205.55,100.9 M 2975.1,1282.1 c -178.3,129.2 -357.8,257 -539.2,382.3 m -550.2,366.4 c -185.6,118.7 -373.7,233.4 -564.8,342.9 -191.1,109.4 -385.28,213.7 -583.11,311.3 m -123.93,63.3 c -41.36,21 -82.78,41.9 -124.23,62.7 -41.46,20.8 -82.96,41.6 -124.48,62.2 -41.53,20.7 -83.09,41.3 -124.66,61.9 M 1962.1,2010 c -181.9,117.9 -366.4,231.6 -554,339.9 -187.6,108.3 -378.5,211.2 -573.01,307.4 -47.83,24.7 -95.74,49.2 -143.72,73.5 -47.98,24.4 -96.02,48.6 -144.12,72.7 -48.09,24.1 -96.23,48.1 -144.4,72.1 -48.17,23.9 -96.36,47.8 -144.56,71.7 M 3021.2,1287 c -169.7,130.1 -341.5,257.8 -515.8,382 m -530.6,361.3 c -179.5,116.3 -361.9,228.2 -547.4,334.6 m -566.51,301.8 c -51.18,26.2 -102.45,52.2 -153.81,78.1 -51.36,25.8 -102.8,51.4 -154.3,77 -51.51,25.5 -103.08,50.8 -154.7,76.1 -51.62,25.3 -103.29,50.5 -154.99,75.6 M 3030.4,1303 c -166.2,130.7 -335,258.2 -506.6,381.9 m -523.4,358.3 c -177.5,115 -357.9,225.3 -541.6,329.9 -183.7,104.7 -370.6,203.8 -560.91,296.4 -55.23,28.1 -110.58,55.9 -166.02,83.5 -55.45,27.6 -110.99,55.1 -166.61,82.4 -55.61,27.2 -111.29,54.4 -167.01,81.5 -55.72,27 -111.49,54 -167.26,81 m 2775.71,-1652 c -169.2,137.6 -342.4,270.1 -519.4,397.3 -177,127.1 -357.8,249 -542.1,365.4 -184.2,116.4 -372,227.3 -562.9,332.5 -190.9,105.2 -384.96,204.7 -581.91,298.2 -48.3,23.9 -96.66,47.6 -145.07,71.2 -48.4,23.7 -96.84,47.2 -145.31,70.8 -48.46,23.5 -96.94,46.9 -145.42,70.4 -48.48,23.5 -96.95,47 -145.4,70.6 M 2997.4,1383 c -168.4,139.8 -341.8,273.3 -519.5,400.7 -177.7,127.4 -359.8,248.7 -545.5,364.1 -185.8,115.3 -375.3,224.7 -567.9,328.4 m -586.41,294.1 c -21.8,10.6 -43.61,21.2 -65.44,31.7 -21.82,10.6 -43.65,21.1 -65.5,31.6 -21.84,10.5 -43.69,21 -65.56,31.4 -21.86,10.5 -43.72,21 -65.6,31.4 M 3029.3,1392.2 c -159.7,134.3 -324.2,262.5 -492.9,384.8 -168.7,122.4 -341.7,238.8 -518.3,349.4 -176.6,110.7 -356.9,215.5 -540.3,314.7 -183.3,99.2 -369.8,192.7 -558.81,280.6 -48.92,23.7 -97.93,47.2 -147,70.5 -49.06,23.4 -98.19,46.7 -147.35,69.8 -49.16,23.2 -98.36,46.3 -147.58,69.4 -49.21,23 -98.44,46.1 -147.67,69.1 M 1975,2186.2 c -182.8,110.8 -369.7,215.1 -559.5,313.8 -189.8,98.6 -382.6,191.5 -577.31,279.4 -18.47,8.7 -36.96,17.3 -55.46,25.9 -18.5,8.6 -37,17.3 -55.51,25.9 l -55.56,25.8 c -18.52,8.6 -37.04,17.2 -55.57,25.8 m 1887.31,-1003 c -172.2,121.2 -349.5,234.9 -530.8,342.1 m -554.8,302.9 c -188.2,95.1 -379.1,184.5 -571.71,269.3 -19.4,8.9 -38.81,17.8 -58.22,26.7 l -58.23,26.7 c -19.41,8.8 -38.82,17.7 -58.23,26.6 -19.41,8.9 -38.82,17.8 -58.22,26.7 M 2986.3,1552.4 c -162.5,138.8 -332.3,267.6 -507.8,387.9 -175.6,120.3 -356.9,232.1 -542.2,337.1 -185.4,105 -374.8,203.1 -566.7,296 m -581.51,264.8 c -15.37,6.9 -30.75,13.8 -46.12,20.6 -15.38,6.9 -30.75,13.8 -46.13,20.6 -15.37,6.9 -30.75,13.8 -46.12,20.6 -15.38,6.9 -30.75,13.8 -46.13,20.6 M 3015.2,1582.8 c -129.7,106.9 -263.3,208.9 -400.3,306 -137,97.1 -277.4,189.3 -420.9,276.4 -143.5,87.2 -290.1,169.4 -439.2,246.7 -149.2,77.2 -300.9,149.4 -454.9,216.6 -58.3,26.6 -116.7,52.9 -175.3,78.9 -58.5,26.1 -117.2,51.9 -175.87,77.6 -58.69,25.6 -117.44,51.2 -176.2,76.8 -58.75,25.5 -117.52,51.1 -176.24,76.7 m 2398.21,-1285 c -134.2,109.5 -273.1,212.5 -415.9,309.7 -142.8,97.2 -289.6,188.5 -439.5,274.4 -149.9,85.9 -303,166.5 -458.5,242.1 M 1053.4,2759 c -51.6,21.9 -103.17,43.8 -154.78,65.6 -51.61,21.8 -103.25,43.5 -154.86,65.3 -51.62,21.8 -103.22,43.6 -154.77,65.5 M 2971.6,1729.3 c -125.9,99.5 -256,193.3 -389.5,281.7 -133.5,88.5 -270.5,171.6 -410.4,249.7 -139.8,78.2 -282.4,151.4 -427.3,220.1 m -440.2,193 c -59.9,25.3 -119.9,50.3 -180,75.2 -60.1,24.8 -120.3,49.5 -180.52,74.1 -60.19,24.7 -120.4,49.2 -180.57,73.9 -60.17,24.7 -120.3,49.4 -180.32,74.4 M 2559.2,2077.9 c -135.3,85.5 -274.2,165.3 -415.8,240.1 -141.6,74.8 -285.9,144.6 -432.2,210 -146.2,65.5 -294.5,126.6 -443.9,183.9 -57.5,23.1 -115,46 -172.6,68.9 M 921.92,2849 c -57.61,22.7 -115.22,45.5 -172.78,68.4 -57.55,22.8 -115.05,45.9 -172.45,69.1 m 2446.61,-1158 c -94.3,61 -188.4,122.9 -283,184 -94.6,61.1 -189.8,121.4 -286.3,179.3 -96.5,57.9 -194.3,113.3 -294.3,164.7 -99.9,51.4 -202.1,98.8 -307.1,140.4 -111.9,49.1 -224.7,95.8 -338.1,141 -113.5,45.3 -227.5,89.1 -341.6,132.5 -114.2,43.5 -228.53,86.5 -342.62,130.1 -114.1,43.5 -227.97,87.7 -341.19,133.5 M 2993.3,1914.4 c -95.2,59.3 -190.5,119.1 -286.4,177.8 -95.9,58.7 -192.5,116.3 -290.4,171.3 -98,55 -197.3,107.5 -298.5,155.9 -101.3,48.4 -204.6,92.7 -310.5,131.4 -104.6,42.6 -210,83.3 -315.8,123 -105.8,39.6 -211.9,78.2 -318.2,116.7 m -318.49,115.7 c -106.02,39 -211.77,78.7 -316.92,120 M 3020.8,1974.6 c -91.2,47.7 -181,98.5 -270.4,150 -89.4,51.4 -178.5,103.5 -268.5,153.8 -90,50.3 -180.8,98.9 -273.6,143.3 -92.9,44.4 -187.8,84.7 -285.9,118.3 -111.7,44.5 -224.3,86.5 -337.5,127.1 M 1244.5,2786 c -113.7,39.1 -227.4,78 -340.82,117.9 M 3018.3,2051 c -88.5,40 -174.9,84.3 -260.5,130.2 -85.7,46 -170.6,93.4 -256.1,139.6 -85.5,46.1 -171.6,90.9 -259.6,131.6 m -271.4,106.3 c -109.1,41.2 -219,80 -329.4,117.5 -110.4,37.5 -221.3,73.6 -332.2,109.7 -110.9,36 -221.9,71.8 -332.5,108.6 -110.63,36.9 -220.93,74.7 -330.51,114.6 M 3014.8,2128.3 c -90,34.9 -177.6,75.5 -264.2,118.2 m -258.2,131.6 c -86.1,43.9 -172.6,86.6 -261.1,124.9 -88.4,38.2 -178.8,71.9 -272.6,97.8 -103.5,35.7 -207.6,69.6 -312.1,102.5 m -313.8,96.9 c -104.7,32 -209.4,64 -313.8,96.9 -104.41,33 -208.51,66.9 -312.01,102.7 m 2268.11,-785 c -89.1,33.2 -176.3,71.4 -262.8,111.3 -86.4,40 -172.1,81.8 -258.3,122.3 -86.2,40.4 -172.9,79.5 -261.4,114.2 -88.4,34.6 -178.7,64.8 -271.9,87.3 -95.2,29.6 -190.9,57.8 -286.7,85.5 -95.8,27.7 -191.8,54.9 -287.7,82.3 -96,27.3 -191.8,54.9 -287.4,83.5 -95.52,28.6 -190.78,58.2 -285.51,89.6 M 3006.7,2280.9 c -93,25 -183.2,57.8 -272,94.3 -88.9,36.4 -176.4,76.4 -264.2,115.7 -87.8,39.3 -175.8,77.9 -265.7,111.3 -89.8,33.5 -181.5,61.9 -276.6,80.9 m -271.1,73.7 c -90.5,24 -181.1,47.6 -271.6,71.5 -90.5,24 -180.9,48.2 -271,73.6 -90.2,25.4 -179.98,51.8 -269.31,80 M 2965,2361.7 c -88.4,21.6 -174.3,50.8 -259,83.2 -84.8,32.5 -168.4,68.4 -252.3,103.4 -83.9,35 -168,69.2 -253.8,98.5 -85.7,29.3 -173.1,53.6 -263.5,68.8 -85,21.5 -170.3,42.3 -255.6,62.8 m -511.2,125.5 c -84.9,22.1 -169.5,45.2 -253.71,70 M 2999.9,2425.1 c -90.4,13.8 -178,37.4 -264.1,66 -86.1,28.5 -170.8,61.9 -255.5,95.2 -84.7,33.2 -169.5,66.4 -255.8,94.3 -86.3,28 -174.1,50.8 -264.9,63.4 m -262.3,57.7 c -87.5,18.9 -175,37.7 -262.4,57.1 m -261.5,61 c -86.8,21.5 -173.4,44.4 -259.41,69.3 m 2043.61,-491 c -89.2,13.3 -176.1,35.5 -261.8,62 -85.8,26.5 -170.3,57.2 -255.1,87.4 -84.7,30.2 -169.5,59.9 -255.8,84.3 -86.2,24.5 -173.8,43.7 -264.1,52.9 -84.4,16.4 -168.9,32.4 -253.4,48.7 -84.4,16.3 -168.8,32.8 -253.1,50.2 -84.2,17.4 -168.2,35.6 -251.9,55.2 -83.7,19.6 -167.11,40.7 -250.01,63.7 M 2998.1,2558.8 c -89.7,4.8 -176.9,21 -262.7,43 -85.9,22 -170.5,49.9 -255,78.1 -84.5,28.2 -169,56.6 -254.7,79.9 -85.7,23.2 -172.6,41.2 -262,48.3 m -264.5,44.3 c -88.2,14.9 -176.2,30.3 -264.1,46.7 -87.9,16.4 -175.5,33.9 -262.8,53.1 -87.3,19.3 -174.16,40.2 -260.51,63.6 M 2956.1,2623.3 c -87,4 -171.9,18.7 -255.7,38.8 m -249.3,70.9 c -82.7,25.4 -165.5,50.7 -249.4,70.5 -83.8,19.8 -168.8,34.2 -256,37.6 m -260.2,36.6 c -86.7,12.9 -173.2,26.6 -259.5,41.7 m -258,49.6 c -85.7,18.1 -171.01,38.1 -255.81,60.2 M 3002.2,2680.4 c -84.5,-3.4 -167.1,4.9 -248.8,19.7 m -242.8,58.1 c -80.6,22.2 -161,45.5 -242.2,64.5 -81.2,19.1 -163.1,33.9 -246.7,39.1 m -189.2,22 c -63.2,7 -126.3,13.9 -189.4,21.5 -63.1,7.5 -126.1,15.7 -188.8,25.4 -62.8,9.6 -125.3,20.7 -187.5,33.9 m 1694.9,-228.3 c -81.9,-4 -162.3,3.4 -241.8,17 -79.5,13.5 -158.1,33.1 -236.8,53.4 -78.6,20.2 -157.2,41 -236.5,57 m -241,27.8 c -61.7,6 -123.5,11.5 -185.2,17 -61.8,5.5 -123.6,11.1 -185.3,17.6 -61.7,6.4 -123.2,13.6 -184.6,22.4 -61.4,8.7 -122.6,19 -183.4,31.4 m 1748.4,-191 c -82.9,-8.7 -164.5,-5.7 -245.5,3.8 m -241.3,43.1 c -80.1,17.4 -160.2,36.2 -240.7,51.1 m -243.6,27.9 c -64.7,5 -129.5,9.2 -194.3,13.4 -64.8,4.3 -129.6,8.6 -194.3,13.9 -64.8,5.4 -129.4,11.7 -193.7,19.9 -64.4,8.3 -128.5,18.4 -192.3,31.4 M 2999.2,2839 c -81.6,-10.1 -162.1,-8.5 -242.1,-0.7 m -238.9,37.5 c -79.4,15.4 -158.8,31.9 -238.6,44.3 -79.8,12.3 -160,20.6 -241.1,19.5 -63.9,3.3 -127.9,6 -191.9,9 -64.1,3 -128.1,6.3 -192,10.8 -63.9,4.5 -127.7,10.1 -191.3,17.8 -63.6,7.6 -126.9,17.2 -189.9,29.7 m 1711.7,-122.5 c -62.3,-8.4 -124.3,-10 -186.1,-7.3 -61.8,2.7 -123.4,9.7 -184.9,18.7 m -184,30.5 c -61.3,10.5 -122.5,20.6 -183.7,27.9 -80.7,4.5 -161.6,6.9 -242.6,8.9 -81,2 -162,3.7 -242.9,6.8 -80.9,3 -161.7,7.5 -242.2,15.2 -80.4,7.7 -160.7,18.6 -240.4,34.4 m 1695.2,-92.6 c -75.3,-11.7 -150.2,-12.8 -224.8,-8.3 -74.6,4.6 -149,14.8 -223.3,25.8 -74.4,11.1 -148.7,22.9 -223.3,30.7 -74.5,7.9 -149.3,11.6 -224.5,6.5 -66.3,0.3 -132.6,0.5 -199,1.5 -66.4,0.9 -132.7,2.6 -199,5.7 -66.3,3.1 -132.4,7.7 -198.4,14.6 -65.9,6.8 -131.6,15.9 -197,27.9 m 1680.9,-64.4 c -57.2,-9 -114.4,-12.3 -171.6,-11.9 -57.1,0.4 -114.2,4.5 -171.3,10.3 -57,5.7 -114,13.1 -170.9,20.1 -57,7.1 -113.8,13.7 -170.6,17.8 -72.6,0.5 -145.2,-0.7 -218,-2.1 -72.7,-1.4 -145.4,-3 -218.1,-3.2 -72.7,-0.2 -145.4,1.1 -217.8,5.3 -72.5,4.2 -144.8,11.4 -216.8,23.1 m 1549,-21.4 c -69.6,-12.4 -139.1,-15.8 -208.7,-14.3 -69.5,1.5 -139,7.9 -208.5,14.8 -69.5,6.8 -139,14.3 -208.6,17.9 -69.5,3.7 -139.2,3.6 -208.9,-4.5 -55.5,-2.2 -111.2,-4.4 -166.9,-5.9 -55.6,-1.6 -111.3,-2.5 -167,-2.2 -55.7,0.3 -111.3,1.8 -166.9,5.1 -55.5,3.3 -110.9,8.5 -166.2,16 m 1572.3,-290.2 c -6.2,21.9 -12.9,43.6 -19.8,65.3 -6.9,21.7 -13.9,43.3 -20.4,65.1 -6.6,21.8 -12.7,43.7 -17.9,65.7 -5.3,22.1 -9.6,44.5 -12.5,67.1 m 56.3,-421.4 c -7.5,35.1 -17.1,69.7 -27.4,104.1 -10.3,34.4 -21.4,68.6 -32,102.9 -10.5,34.3 -20.6,68.8 -28.7,103.7 -8.2,34.8 -14.5,70.1 -17.7,106.1 m 118.6,-2025 c 1.4,64.5 6,128.8 11.6,193.1 5.7,64.3 12.6,128.5 18.5,192.7 6,64.3 11.1,128.5 13.3,192.9 2.2,64.4 1.5,128.9 -4.1,193.6 -2.5,99.6 -9.2,198.9 -19.4,297.8 -10.3,98.9 -24.2,197.4 -41.4,295.4 -17.1,98 -37.6,195.4 -60.8,292.1 -23.3,96.8 -49.4,192.8 -78,288 -1.1,6.2 -2.1,12.4 -3.1,18.6 -0.9,6.2 -1.7,12.4 -2.3,18.6 -0.7,6.2 -1.2,12.5 -1.6,18.7 -0.4,6.3 -0.7,12.5 -0.8,18.8 M 3022.6,793.75 c -14.6,63.14 -20,126.3 -20,189.51 -0.1,63.24 5.1,126.44 11.3,189.74 6.3,63.3 13.7,126.7 18.1,190.1 4.5,63.4 5.9,126.9 0.2,190.5 -1.6,112 -7.1,223.9 -16.6,335.4 -9.4,111.5 -22.8,222.7 -40.1,333.2 -17.3,110.6 -38.5,220.5 -63.6,329.6 -25.1,109.1 -54,217.2 -86.8,324.3 -1.8,9.6 -3.5,19.3 -4.9,29 -1.5,9.7 -2.7,19.4 -3.7,29.1 -1,9.8 -1.8,19.5 -2.3,29.3 -0.5,9.8 -0.7,19.6 -0.6,29.4 M 3007.5,720.55 c -13.1,55.06 -21.1,110.53 -25.3,166.24 -4.2,55.7 -4.7,111.63 -3,167.61 1.7,56 5.6,112 10.1,167.9 4.6,55.9 9.9,111.7 14.4,167.1 0.4,126.8 -5,253.3 -15.5,379.4 -10.5,126.1 -26.1,251.7 -46.2,376.7 -20.1,125 -44.7,249.3 -73.1,372.6 -28.4,123.4 -60.6,245.9 -96.1,367.3 -1.6,8.7 -3,17.5 -4.1,26.2 -1.2,8.8 -2,17.7 -2.6,26.5 -0.6,8.9 -0.8,17.7 -0.7,26.6 0.2,8.8 0.7,17.7 1.7,26.5 M 3020.4,534.95 c -16.8,64.67 -31,130.19 -42.1,196.21 -11,66.02 -19,132.55 -23.4,199.25 -4.4,66.7 -5.3,133.59 -2.1,200.29 m 21.9,199.3 c 1.8,131.3 -4,262.1 -15.9,392.2 -11.9,130.2 -29.9,259.8 -52.5,388.7 -22.6,128.9 -49.8,257 -80.3,384.4 -30.4,127.4 -64.1,254 -99.5,379.6 -1.6,9.6 -3,19.2 -4,28.8 -1.1,9.7 -1.8,19.3 -2.1,29 -0.4,9.7 -0.3,19.4 0.3,29 0.5,9.7 1.6,19.3 3.2,28.9 m 297,-2558.95 c -23.1,74 -42.2,149.24 -57.1,225.27 -14.9,76.03 -25.7,152.86 -32.1,230.02 -6.5,77.16 -8.6,154.66 -6.4,232.06 2.2,77.4 8.8,154.7 19.9,231.4 0.9,117 -4.9,233.5 -16,349.5 -11.2,116 -27.7,231.5 -48.3,346.3 -20.7,114.8 -45.5,229 -73.2,342.4 -27.7,113.4 -58.2,226.1 -90.5,337.9 -4,21.7 -9.3,43.5 -14.8,65.4 m -15.8,66 c -4.6,22.1 -8.1,44.2 -9.4,66.4 -1.2,22.2 -0.1,44.5 4.5,66.7 M 2993.1,424.35 c -24.4,77.33 -43.8,155.95 -58.6,235.39 -14.9,79.45 -25.1,159.72 -31,240.33 -5.9,80.62 -7.5,161.63 -5.2,242.43 m 18.7,241.7 c -0.2,116.4 -7.8,232.1 -21,347 m -55.3,342.8 c -23,113.6 -50.1,226.5 -79.4,338.8 m -93.2,334.8 c -3.7,20.1 -8.5,40.4 -13.1,60.8 -4.7,20.4 -9.4,40.9 -13,61.4 -3.6,20.6 -6.1,41.2 -6.5,61.8 -0.5,20.6 1.2,41.2 6,61.7 M 2964.3,417.65 C 2940,496 2920.7,575.6 2906,656.01 c -14.7,80.41 -24.8,161.61 -30.6,243.18 -5.9,81.56 -7.6,163.51 -5.6,245.31 2.1,81.8 7.8,163.5 16.9,244.7 0.8,118 -7.2,235.1 -21.5,351.3 -14.4,116.2 -35.3,231.5 -60.3,346.1 -25.1,114.6 -54.4,228.5 -85.8,341.7 -31.4,113.2 -64.8,225.8 -98,337.9 -3.5,18.6 -7.5,37.6 -11.2,56.7 -3.7,19.1 -7.1,38.5 -9.5,57.8 -2.3,19.4 -3.7,38.8 -3.2,58 0.4,19.2 2.6,38.3 7.4,57.1 M 3014.9,212.15 c -45.6,94.33 -80.4,192.01 -106.5,291.88 -26,99.87 -43.3,201.92 -53.7,304.98 -10.5,103.06 -14.1,207.09 -13,311.09 m 15.6,310 c -0.9,115.6 -10.4,230.1 -26.2,343.6 -15.8,113.6 -37.8,226.2 -63.9,338.1 -26,111.9 -56.1,223.1 -87.9,333.6 -31.7,110.6 -65.2,220.6 -98.2,330.1 -3.5,18 -7.2,36.5 -10.6,55.2 -3.3,18.8 -6.2,37.8 -8,56.8 -1.8,19 -2.5,38 -1.3,56.8 1.2,18.7 4.2,37.2 9.7,55.1 M 3014.7,147.95 c -53.1,96.95 -93.3,198.23 -123.3,302.33 -30,104.09 -49.8,211.01 -61.9,319.25 -12.2,108.23 -16.8,217.77 -16.5,327.07 0.4,109.4 5.6,218.5 13.2,326 m -24.5,354.3 c -16.6,116.9 -40.6,232.7 -68.8,347.8 -28.2,115 -60.7,229.3 -94.2,343.1 -33.5,113.7 -68,227.1 -100.5,340.2 -3.2,16.1 -5.9,32.4 -7.8,48.7 -1.9,16.4 -3.1,32.9 -3.3,49.3 -0.2,16.5 0.5,32.9 2.3,49.3 1.8,16.3 4.6,32.6 8.8,48.6 M 2982.3,144.15 c -53.1,98.22 -93.1,200.74 -122.7,306.05 -29.6,105.3 -48.9,213.39 -60.6,322.77 -11.8,109.39 -16,220.05 -15.5,330.53 0.5,110.4 5.7,220.7 12.8,329.2 0.8,120.1 -9.1,238.8 -26.4,356.3 -17.3,117.6 -42.1,233.9 -71,349.6 -28.9,115.6 -61.9,230.4 -95.8,344.9 -33.9,114.4 -68.6,228.4 -100.9,342.4 -2.6,15.1 -4.8,30.3 -6.4,45.7 -1.5,15.4 -2.4,30.9 -2.3,46.3 0.1,15.5 1.2,30.8 3.6,46 2.5,15.1 6.3,30.1 11.7,44.7 M 2948.9,140.85 c -53.3,99.95 -92.9,204.22 -122,311.26 -29.1,107.05 -47.6,216.88 -58.7,327.96 m -2.2,669.23 c 0.1,120.1 -10.6,238.7 -28.7,356 -18.1,117.4 -43.6,233.6 -72.9,349.1 -29.3,115.5 -62.5,230.2 -96.1,344.7 -33.6,114.5 -67.5,228.8 -98.4,343.2 -2.7,14.1 -5,28.6 -6.4,43.1 -1.4,14.5 -1.9,29.1 -1.4,43.7 0.6,14.5 2.3,28.9 5.4,43 3.1,14.2 7.7,28 14,41.3 m 433,-2875.35 c -53.3,102.03 -92.5,208.27 -121,317.22 -28.5,108.96 -46.4,220.62 -56.9,333.51 -10.6,112.88 -13.8,226.92 -13.2,340.82 0.7,113.8 5.3,227.3 10.4,339 0,118.7 -10.8,235.7 -28.9,351.5 -18.1,115.8 -43.5,230.4 -72.6,344.3 -29.1,113.9 -62,227.1 -95,340.1 -33,113.1 -66.2,225.9 -96,339 -2.8,14.4 -5,29.1 -6.2,43.9 -1.2,14.8 -1.4,29.7 -0.5,44.5 0.9,14.7 3,29.3 6.6,43.6 3.6,14.3 8.6,28.3 15.3,41.7 M 2881,135.55 c -52.1,101.18 -90.6,206.48 -118.6,314.45 -28,107.97 -45.7,218.6 -56.2,330.41 -10.5,111.82 -13.9,224.79 -13.6,337.49 0.4,112.7 4.6,225.2 9.2,335.8 0.8,115.6 -8.3,229.8 -24.4,343 -16.1,113.2 -39.2,225.4 -66.4,336.8 -27.2,111.3 -58.5,222 -90.9,332.1 -32.5,110.2 -66,219.8 -97.8,329.3 -4.3,18.5 -7.7,37.3 -10,56.4 -2.3,19 -3.5,38.2 -3.1,57.3 0.3,19.1 2.1,38.1 5.7,56.8 3.6,18.6 9.1,37 16.6,54.8 M 2926,13.15 c -62.5,83.35 -109.8,173.14 -145.7,267.16 -36,94.03 -60.6,192.3 -77.7,292.61 -17.2,100.31 -26.8,202.66 -32.9,304.86 -6,102.19 -8.4,204.22 -11.1,303.92 4.5,80.6 7.4,161.5 7.8,242.3 0.4,80.9 -1.7,161.7 -7.1,242.2 -5.5,80.5 -14.2,160.8 -27.2,240.4 -13,79.6 -30.1,158.7 -52.3,236.8 -15.9,65.9 -34.7,131.3 -54.2,196.6 -19.6,65.2 -40,130.4 -59.2,195.7 -19.1,65.4 -37.1,130.9 -51.8,197.1 -14.8,66.3 -26.3,133.1 -32.5,200.9 M 2745.8,280.74 c -35.4,94.46 -59.3,193.11 -75.9,293.75 -16.6,100.65 -25.8,203.3 -31.7,305.75 -5.8,102.44 -8.4,204.66 -11.7,304.56 4,82.7 6.6,165.6 6.6,248.5 0.1,82.9 -2.2,165.8 -7.9,248.4 -5.8,82.5 -14.9,164.8 -28.4,246.4 -13.4,81.6 -31.2,162.6 -54.3,242.6 -15.3,63.2 -33.3,126 -51.9,188.6 -18.6,62.7 -37.9,125.3 -56,188.1 -18,62.8 -34.8,125.8 -48.5,189.4 M 2840.6,29.25 c -60.1,87.18 -104.8,180.19 -138.2,277.01 -33.4,96.83 -55.4,197.47 -70.3,299.9 -15,102.42 -22.8,206.64 -27.6,310.62 -4.8,104.02 -6.6,207.72 -9.7,309.22 4.5,87.7 6.4,175.6 5.1,263.4 -1.3,87.8 -5.8,175.5 -14.1,262.8 -8.3,87.3 -20.4,174.2 -36.8,260.3 -16.4,86.1 -37.2,171.5 -63,255.8 -14.8,56 -31.5,111.9 -48.2,167.9 -16.7,56.1 -33.5,112.2 -48.5,168.6 -15,56.5 -28.4,113.2 -38.2,170.5 M 2817.8,11.45 c -61.7,84.825 -107.6,175.88 -141.8,271.01 -34.3,95.13 -57,194.33 -72.4,295.45 -15.5,101.11 -23.8,204.14 -29.2,306.93 -5.5,102.78 -8.1,205.36 -12.2,305.46 2.3,86.3 3.8,172.9 3.2,259.5 -0.6,86.5 -3.3,173.1 -9.4,259.3 -6.1,86.2 -15.5,172 -29.6,257.2 -14.1,85.1 -32.9,169.6 -57.6,253.1 m -49.4,179 c -17.5,59.6 -35.4,119.3 -51.5,179.3 M 2781.4,11.55 C 2720.8,95 2676,184.51 2642.5,277.97 c -33.4,93.47 -55.5,190.89 -70.6,290.17 -15.2,99.29 -23.4,200.43 -29,301.34 -5.7,100.91 -8.8,201.62 -13.9,299.92 2.2,94.4 3.4,189.1 2.2,283.8 -1.2,94.7 -4.8,189.3 -12.2,283.5 -7.4,94.3 -18.6,188 -35,281 -16.3,93 -37.8,185.2 -65.9,276.1 -14,54 -29.9,107.9 -45.6,162.1 -15.8,54.2 -31.5,108.5 -45.1,163.2 -13.7,54.6 -25.3,109.6 -33,165 M 2744.6,11.85 c -59.6,82.2 -103.6,170.36 -136.3,262.41 -32.6,92.06 -54.1,188 -68.7,285.76 -14.7,97.76 -22.6,197.33 -28.3,296.66 -5.6,99.32 -9,198.42 -14.5,295.12 0.5,94.9 1,190.1 -0.3,285.3 -1.3,95.2 -4.3,190.4 -10.9,285.2 -6.6,94.8 -16.7,189.2 -32.1,282.8 -15.4,93.6 -36.1,186.4 -63.9,278.1 -13.7,54.7 -29.3,109.4 -44.9,164.3 -15.7,54.9 -31.2,110 -44.7,165.4 M 2699.3,24.85 c -59.5,87 -102.7,179.7 -134.2,276.09 -31.6,96.4 -51.7,196.49 -65,298.27 -13.3,101.77 -19.9,205.24 -24.7,308.39 -4.7,103.2 -7.6,206 -13.4,306.5 1.7,98.1 1.7,196.4 -1,294.7 -2.8,98.3 -8.2,196.5 -17.6,294.2 -9.3,97.7 -22.5,195 -40.6,291.4 -18.2,96.4 -41.2,192 -70.4,286.3 -12.4,47.3 -26.1,95 -39.2,143 -13.1,47.9 -25.7,96.2 -35.9,144.8 -10.2,48.5 -18.1,97.4 -21.9,146.4 m 436,-2801.65 c -58.9,82.375 -101.9,170.59 -133.7,262.59 -31.7,92.01 -52.1,187.81 -65.9,285.35 -13.8,97.55 -21.1,196.85 -26.4,295.85 -5.2,98.99 -8.6,197.66 -14.7,294.06 -0.6,104.2 -1.4,208.7 -4.4,313.2 -2.9,104.6 -7.8,209 -16.5,313 -8.8,104 -21.3,207.6 -39.3,310.2 -18.1,102.7 -41.6,204.5 -72.5,304.9 -11.9,46.2 -25,92.7 -37.4,139.6 m -34,141.5 c -9.5,47.4 -16.6,95.1 -19.6,143 M 2634,14.35 c -60.2,85.8 -103.6,177.49 -135.1,273 -31.5,95.5 -51.3,194.81 -64.3,295.84 -13.1,101.04 -19.5,203.8 -24.3,306.19 -4.8,102.4 -8.1,204.42 -14.9,304.02 -0.1,104.9 -1.3,210.1 -5.1,315.2 -3.7,105.2 -9.9,210.2 -19.9,314.7 -10.1,104.6 -24,208.7 -43.1,311.8 -19.2,103.2 -43.5,205.5 -74.4,306.5 -10.7,42.2 -22.1,84.8 -32.9,127.8 -10.7,42.9 -20.6,86.3 -28.2,129.8 -7.6,43.5 -12.9,87.2 -14.2,130.9 -1.4,43.8 1.2,87.6 9.2,131.3 2.1,5.8 4.4,11.6 6.9,17.3 2.6,5.6 5.5,11.2 8.6,16.5 M 2597.2,15.65 c -59.6,84.95 -102.3,175.73 -133.3,270.27 -31,94.55 -50.2,192.85 -62.9,292.85 -12.7,100 -18.8,201.68 -23.5,303 -4.7,101.31 -8.1,202.23 -15.2,300.73 -1.8,104.3 -3.8,209 -7.7,313.6 -3.9,104.6 -9.7,209.2 -18.9,313.4 -9.3,104.1 -22,207.8 -39.8,310.7 -17.8,102.9 -40.8,205 -70.4,305.9 -11,44 -23,88.7 -34.3,133.7 -11.3,45 -21.7,90.5 -29.4,136.1 -7.7,45.6 -12.7,91.4 -12.9,137.1 -0.3,45.7 4.1,91.4 15.2,136.8 2.1,5 4.5,9.8 7,14.6 2.6,4.7 5.3,9.4 8.3,13.9 3,4.5 6.2,8.8 9.6,13 3.4,4.1 7,8.1 10.9,11.9 M 2559.8,16.95 c -59.3,85.52 -101.5,176.79 -132.1,271.76 -30.5,94.97 -49.3,193.64 -61.6,293.96 -12.3,100.32 -18.1,202.3 -22.6,303.88 -4.6,101.59 -7.9,202.75 -15.2,301.55 -2.2,109.7 -5,219.7 -10,329.6 -5,110 -12.1,219.8 -22.8,329.2 m -44.6,326.3 c -19.4,108.1 -44,215.3 -75.1,321.3 -9.2,39.9 -19.5,80.9 -28.9,122.5 -9.4,41.5 -17.8,83.6 -23,125.7 -5.2,42.1 -7.2,84.1 -3.9,125.5 3.4,41.4 12.1,82.2 28.4,121.8 l 2.9,4.2 3,4.3 2.9,4.2 2.9,4.2 3.4,3.9 3.5,3.8 3.4,3.9 3.4,3.8 M 2525,15.05 c -57.9,81.975 -99.4,169.64 -129.5,260.97 -30.1,91.33 -48.8,186.34 -61.1,283 -12.4,96.66 -18.3,194.97 -22.9,292.92 -4.6,97.96 -7.9,195.56 -14.8,290.76 -3.7,112.7 -7.4,225.8 -12.7,338.8 -5.3,113 -12.2,226 -22.5,338.5 -10.3,112.6 -23.9,224.7 -42.6,336 -18.7,111.4 -42.4,221.9 -72.9,331.3 -9.3,41.2 -20.2,83.7 -30,127 -9.7,43.2 -18.3,87 -23.2,130.8 -4.9,43.7 -6.1,87.2 -0.9,129.8 5.2,42.7 16.8,84.4 37.4,124.3 1.6,1.8 3.1,3.5 4.7,5.3 1.5,1.8 3.1,3.5 4.6,5.3 1.6,1.8 3.1,3.5 4.7,5.3 1.6,1.8 3.1,3.5 4.7,5.3 M 2484.5,20.15 c -57.8,84.35 -98.8,174.25 -128.1,267.71 -29.4,93.47 -47.2,190.5 -58.8,289.11 m -37.2,594.73 c -3.4,115.8 -7.6,231.8 -13.9,347.7 -6.3,115.9 -14.7,231.7 -26.4,347.1 -11.8,115.3 -26.9,230.3 -46.8,344.4 -19.8,114.2 -44.3,227.6 -74.9,339.9 -8,37 -17.3,76.7 -25.1,117.5 -7.8,40.9 -14.2,82.8 -16.1,124 -1.9,41.3 0.5,81.9 10.2,120.1 9.7,38.3 26.6,74.2 53.6,106.1 M 2446.9,22.05 c -57.7,85.3 -98.4,176.08 -127.4,270.38 -29,94.29 -46.4,192.1 -57.6,291.46 -11.2,99.36 -16.1,200.27 -20.3,300.76 m -15.2,298.25 c -4.4,117 -9.6,234.2 -16.8,351.3 -7.1,117.1 -16.2,234.1 -28.5,350.7 -12.3,116.5 -27.7,232.7 -47.5,348.2 -19.8,115.5 -43.9,230.2 -73.7,344 -6.7,34.8 -14.7,72.4 -21.1,111.1 -6.5,38.7 -11.4,78.5 -12.1,117.5 -0.8,39.1 2.7,77.5 13,113.4 10.3,35.8 27.5,69.3 54.3,98.4 M 2409,23.75 c -56.9,84.07 -96.8,173.56 -125.3,266.5 m -56.1,287.27 c -10.8,97.92 -15.6,197.36 -19.7,296.37 -4.2,99.01 -7.7,197.61 -16,293.81 -4.5,122.3 -10.3,244.6 -18.4,366.9 -8,122.2 -18.3,244.3 -31.7,365.9 -13.3,121.7 -29.8,243 -50.2,363.7 -20.4,120.6 -44.8,240.7 -74,359.8 m -17,100.6 c -4.4,34.5 -6.7,69.4 -5.2,103.7 1.6,34.2 6.9,67.7 18.1,99.3 11.1,31.6 28.1,61.3 52.6,87.9 M 2267.9,228.43 c -31.3,84.75 -51.3,173.55 -64.7,264.2 m -24.9,275.35 c -4.7,92.19 -7.4,184.06 -12.6,273.42 -6.6,132.7 -13.6,265.5 -22.3,398.3 -8.7,132.7 -19.1,265.4 -32.5,397.7 -13.4,132.2 -29.7,264.2 -50.2,395.5 -20.6,131.3 -45.4,261.9 -75.6,391.7 -6,32.3 -12.2,66.3 -16.3,100.8 -4.2,34.5 -6.5,69.5 -4.8,103.7 1.7,34.2 7.3,67.6 19,98.9 11.6,31.4 29.2,60.6 54.9,86.5 M 2333.6,27.85 c -56.5,84.83 -95.7,174.94 -123.4,268.43 -27.7,93.48 -43.8,190.35 -53.9,288.68 -10.1,98.32 -14.1,198.12 -17.8,297.46 -3.7,99.35 -6.9,198.28 -15.3,294.78 -6.1,122.7 -13.6,245.4 -23,368 m -83.9,732.3 c -19.2,121.3 -41.4,242.2 -67,362.5 -5.4,31 -10.7,63.8 -14.1,97.1 -3.3,33.2 -4.7,67 -2.2,99.8 2.5,32.9 8.9,64.9 21.1,94.6 12.2,29.7 30.2,57.2 55.9,81 M 2295.1,29.85 c -55.2,83.47 -93.5,172.11 -120.5,264.02 -26.9,91.92 -42.5,187.13 -52.3,283.75 -9.8,96.62 -13.8,194.66 -17.5,292.25 -3.7,97.58 -7.1,194.73 -15.9,289.53 -5.7,129.3 -14,258.4 -24.7,387.3 -10.7,128.9 -23.8,257.6 -39.1,386 -15.4,128.4 -33,256.5 -52.7,384.4 -19.8,127.8 -41.7,255.3 -65.5,382.4 -3.8,26.8 -6.6,54.9 -7.3,83.1 -0.7,28.2 0.7,56.5 5.4,84 4.7,27.4 12.6,53.9 24.8,78.4 12.3,24.5 28.9,47.1 51,66.5 M 2257.1,31.95 c -55.4,84.72 -93.6,174.57 -120.2,267.69 -26.7,93.11 -41.8,189.48 -51.2,287.24 -9.3,97.77 -12.9,196.93 -16.4,295.62 -3.5,98.69 -6.9,196.9 -16,292.8 -6.2,129.2 -15.3,258.1 -26.8,386.8 -11.5,128.8 -25.4,257.2 -41.1,385.5 -15.8,128.3 -33.4,256.3 -52.4,384.2 m -60.8,382.8 c -2.9,25.7 -4.8,52.7 -4.8,79.8 0.1,27.1 2.2,54.3 7.4,80.5 5.1,26.3 13.4,51.5 25.9,74.6 12.4,23.1 29,44.1 50.9,61.9 M 2258.1,-15.95 c -62,76.775 -105.8,160.39 -137,248.4 -31.3,88 -50,180.39 -61.8,274.71 -11.9,94.31 -16.9,190.55 -20.8,286.26 -3.8,95.71 -6.5,190.89 -13.7,283.08 -6.1,139.9 -16,279.5 -28.5,418.8 -12.6,139.3 -27.9,278.4 -44.9,417.3 -17.1,138.9 -35.9,277.5 -55.4,416.1 -19.6,138.5 -40,277 -60.1,415.3 m -1,72.7 c 1.3,24.6 4.6,49.1 10.7,72.7 6,23.5 14.8,46 27.2,66.5 12.3,20.5 28.2,39 48.5,54.4 M 2219.2,-13.75 c -60.7,76.15 -103.6,158.82 -134.3,245.7 -30.7,86.87 -49.2,177.93 -60.9,270.87 -11.7,92.93 -16.6,187.73 -20.4,282.07 -3.7,94.34 -6.2,188.22 -12.9,279.31 -5.8,142.7 -16.3,285 -29.9,427 -13.6,142 -30.2,283.7 -48.2,425.3 -18,141.6 -37.3,283 -56.4,424.4 -19.1,141.4 -37.9,282.8 -54.7,424.3 -0.7,22.1 -0.3,44.9 2,67.7 2.3,22.8 6.4,45.5 13,67.1 6.6,21.7 15.7,42.3 27.9,61 12.2,18.7 27.5,35.4 46.7,49.2 M 2180.3,-11.35 c -61.6,78.2 -104.7,163.09 -135.1,252.25 -30.4,89.16 -48.1,182.59 -59.1,277.88 -10.9,95.29 -15.1,192.44 -18.4,289.03 -3.3,96.59 -5.7,192.59 -13.1,285.69 -6.2,140.3 -17.5,280.1 -31.8,419.6 -14.2,139.5 -31.5,278.8 -49.8,417.9 -18.2,139.1 -37.5,278.1 -55.7,417.1 -18.3,139.1 -35.5,278.3 -49.7,417.7 -0.3,22 0.5,44.9 3,67.7 2.4,22.8 6.7,45.5 13.4,67.1 6.7,21.6 15.9,42.2 28.2,60.8 12.4,18.5 28,35.1 47.5,48.6 M 2184.5,-56.05 c -64.8,66.075 -112.2,140.375 -147.1,220.02 -34.9,79.64 -57.3,164.62 -72.2,252.06 -14.9,87.44 -22.2,177.34 -26.8,266.81 -4.7,89.48 -6.7,178.52 -11,264.26 -4.7,152.1 -15.6,303.7 -30.2,455 -14.6,151.2 -32.9,302.1 -52.5,452.8 -19.5,150.8 -40.2,301.4 -59.8,452.2 -19.5,150.7 -37.7,301.6 -52.2,452.8 -0.4,22.6 0.3,46.1 2.9,69.5 2.6,23.4 7.1,46.6 14.1,68.8 7,22.2 16.6,43.2 29.5,62.1 12.9,19 29,35.8 49.2,49.5 m 317,-3063.45 c -63,64.1 -109.2,136.219 -143.4,213.55 -34.2,77.33 -56.4,159.86 -71.1,244.8 -14.8,84.94 -22.2,172.28 -26.9,259.2 -4.7,86.93 -6.8,173.45 -10.8,256.75 -3,156.45 -14,312.25 -29.6,467.55 -15.6,155.3 -35.7,310.3 -56.7,465.1 -21,154.8 -43,309.6 -62.3,464.5 -19.3,155 -35.9,310.2 -46.3,466 0.6,20.9 2.5,42.4 6,63.8 3.6,21.3 8.9,42.4 16.4,62.5 7.6,20 17.4,39 29.9,56 12.5,17.1 27.8,32.2 46.3,44.5 M 2106.4,-51.35 c -64.2,66.125 -110.8,140.356 -144.8,219.84 -34.1,79.47 -55.6,164.2 -69.6,251.32 -14,87.11 -20.5,176.62 -24.5,265.65 -4,89.04 -5.5,177.6 -9.6,262.84 -3.7,154.1 -15.6,307.4 -32,460.3 -16.4,152.9 -37.2,305.4 -58.7,457.8 -21.4,152.5 -43.3,304.8 -62,457.5 -18.6,152.7 -34,305.6 -42.1,459.2 0.7,21.2 2.8,43 6.6,64.5 3.8,21.6 9.4,42.9 17.3,63.1 7.9,20.2 18,39.3 31,56.4 12.9,17 28.6,32.1 47.5,44.3 M 2066.3,-49.15 c -62.3,64.575 -107.6,136.981 -140.9,214.46 -33.2,77.48 -54.3,160.03 -68.2,244.9 -13.8,84.87 -20.4,172.06 -24.5,258.8 -4.1,86.74 -5.7,173.04 -9.7,256.14 -2,155.85 -13.6,310.85 -30.4,465.35 -16.7,154.5 -38.6,308.5 -61,462.5 -22.4,153.9 -45.3,307.8 -64.2,462.1 m -40.1,464.3 c 0.7,21.7 2.8,43.9 6.7,66 4,22 9.8,43.8 18,64.4 8.1,20.6 18.6,40 32,57.4 13.3,17.3 29.5,32.6 49,44.9 M 2027.3,-46.95 c -63,66 -108.5,139.875 -141.5,218.84 -33.1,78.96 -53.6,163.01 -66.9,249.37 m -31.4,523.44 c -2.5,148.6 -14,296.3 -30.2,443.5 -16.3,147.3 -37.4,294.1 -59.1,440.8 m -63.4,440.3 c -19,146.9 -34.7,294.2 -42.9,442.2 0,26.8 0.3,55.2 2.4,83.6 2.1,28.4 6,56.9 13.1,84 7.1,27.1 17.5,52.8 32.6,75.5 15,22.8 34.7,42.7 60.6,58.2 M 1987.2,-44.85 c -61.7,65.525 -106.2,138.688 -138.6,216.78 -32.4,78.1 -52.6,161.13 -65.5,246.38 -13,85.26 -18.7,172.74 -22.1,259.75 -3.4,87.01 -4.5,173.54 -8.3,256.89 -1.6,146.65 -12.7,292.35 -28.9,437.55 -16.2,145.2 -37.5,289.9 -59.6,434.5 m -64.6,434 c -19.5,144.8 -35.5,290 -43.7,436 -0.3,29.6 -0.6,61 0.8,92.7 1.5,31.6 4.7,63.5 11.5,93.8 6.8,30.4 17.3,59.3 33.1,85 15.8,25.7 37.1,48.3 65.6,66 M 1948.1,-42.75 c -61.2,65.175 -105.3,137.912 -137.2,215.53 -32,77.62 -51.7,160.12 -64.3,244.82 m -21.1,258.02 c -3.1,86.42 -4.1,172.35 -7.7,255.13 -1.4,143.55 -12,286.15 -27.7,428.25 m -58.8,425 c -22.1,141.4 -45.3,282.7 -65.6,424.3 -20.3,141.6 -37.7,283.6 -48.2,426.2 0.1,32.6 -0.3,67.7 0.8,103.4 1.2,35.7 4,71.9 10.6,106.5 m 33.9,97.2 c 16.6,29.5 39.4,55.4 70.5,75.5 M 1908,-41.05 c -61.4,66.85 -105.2,141.17 -136.7,220.29 -31.5,79.13 -50.6,163.06 -62.5,249.14 -11.9,86.08 -16.7,174.3 -19.5,262.01 -2.8,87.71 -3.7,174.9 -7.8,258.91 -1,142.4 -11.7,283.7 -27.9,424.4 -16.2,140.7 -37.9,280.9 -60.6,420.9 -22.8,140 -46.7,280 -67.3,420.2 -20.6,140.3 -38,281 -47.8,422.4 0.6,32.4 0.8,67.6 2.7,103.3 2,35.7 5.6,72 13,106.7 7.4,34.6 18.5,67.7 35.5,97 17,29.3 39.9,54.9 70.6,74.5 M 1869,-39.15 c -61.3,67.125 -104.9,141.71 -136,221.09 -31.2,79.38 -49.8,163.56 -61.3,249.85 -11.4,86.3 -15.7,174.72 -18,262.6 -2.3,87.87 -2.7,175.2 -6.4,259.31 -1.5,134.8 -11.7,268.5 -26.9,401.8 -15.2,133.2 -35.5,265.9 -57.2,398.4 -21.8,132.5 -45,264.8 -66.1,397.4 -21.1,132.6 -40.1,265.4 -53.4,398.9 -1.6,36.4 -3.4,74.2 -3.7,112.3 -0.3,38 0.9,76.4 5.1,114 4.2,37.6 11.5,74.5 23.4,109.6 11.9,35.2 28.5,68.6 51.4,99.2 l 5.4,5 5.4,4.9 5.4,4.9 5.4,5 6.1,4 6.1,4.1 6.2,4.1 6.1,4 M 1828.9,-37.65 c -59.7,65.775 -102.1,138.75 -132.5,216.35 -30.4,77.61 -48.7,159.84 -60,244.14 -11.3,84.29 -15.5,170.64 -17.9,256.49 -2.4,85.84 -2.8,171.17 -6.4,253.42 -0.3,129.65 -8.9,258.35 -22.7,386.45 -13.8,128.2 -32.7,255.8 -53.7,383.1 m -125,764.1 c -3.6,40.9 -7.1,82.6 -8.9,124.6 -1.9,42 -2.3,84.3 0.1,126.1 2.5,41.8 7.7,83.2 17,123.6 9.2,40.4 22.6,79.8 41.3,117.4 4.7,6.7 9.7,13.2 15.1,19.4 5.3,6.2 11,12.1 16.9,17.7 6,5.6 12.3,10.9 18.8,15.8 6.5,5 13.2,9.6 20.2,13.9 M 1788.8,-36.05 c -60.1,67.6 -102.5,142.37 -132.4,221.73 -29.9,79.36 -47.4,163.31 -57.9,249.28 -10.5,85.96 -14,173.94 -15.9,261.36 -1.8,87.41 -2,174.27 -6,257.98 -1.5,119.3 -9.5,238 -21.9,356.1 -12.4,118.2 -29.1,235.9 -48.1,353.3 m -61.6,351.5 c -21.4,117.1 -43,234 -62.5,351.1 m -16.2,148.9 c -4.2,50.2 -6.7,100.8 -5.7,151 1,50.2 5.5,100 15.1,148.7 9.7,48.7 24.5,96.2 46.3,141.9 4.7,7.2 9.9,14.2 15.4,20.8 5.5,6.7 11.3,13.1 17.6,19.1 6.2,6 12.8,11.6 19.7,16.7 6.9,5.2 14.2,9.9 21.8,14 M 1748.7,-34.75 c -59.4,68.15 -101.1,143.29 -130.5,222.91 -29.4,79.62 -46.5,163.71 -56.6,249.76 -10.2,86.05 -13.3,174.05 -14.9,261.48 -1.5,87.44 -1.4,174.31 -5.1,258.1 -0.9,121.3 -9.1,241.9 -22.1,361.9 -12.9,120 -30.8,239.4 -50.9,358.6 -20.1,119.2 -42.6,238.1 -65,356.9 -22.4,118.8 -44.7,237.6 -64.4,356.6 m -15.2,148.4 c -3.7,50.2 -5.3,100.7 -3,150.7 2.3,50 8.6,99.5 20.6,147.4 12.1,47.8 29.9,94.2 55.5,138 4.4,5.6 9,10.9 13.9,16.1 4.9,5.1 10,10 15.3,14.7 5.3,4.7 10.8,9.2 16.6,13.4 5.7,4.2 11.6,8.1 17.7,11.7 m 248,-3065.35 c -58.9,68.625 -100,144.09 -128.8,223.93 -28.7,79.84 -45.2,164.05 -54.7,250.16 -9.6,86.11 -12.3,174.12 -13.5,261.55 -1.2,87.44 -1,174.3 -4.8,258.11 -1.1,118.2 -8.9,235.6 -21.3,352.5 -12.4,117 -29.5,233.4 -49.2,349.4 -19.6,116.1 -41.8,231.9 -64.5,347.4 -22.7,115.6 -45.9,231.1 -67.5,346.5 m -19.3,161.2 c -4.7,54.7 -7.1,109.9 -4.8,164.4 2.4,54.5 9.4,108.2 23.4,160 14,51.8 35,101.6 65.2,148.2 4.1,4.5 8.4,8.9 12.8,13.1 4.5,4.2 9.1,8.2 13.9,12 4.7,3.8 9.7,7.4 14.7,10.8 5.1,3.4 10.3,6.6 15.6,9.6 M 1669.6,-32.35 c -57.7,67.25 -98.1,141.19 -126.3,219.4 -28.2,78.21 -44.4,160.7 -53.8,245.04 -9.4,84.35 -12.1,170.56 -13.3,256.21 -1.2,85.66 -1,170.76 -4.6,252.9 0.2,121.8 -7.1,242.8 -19.7,363.3 -12.6,120.4 -30.5,240.3 -51.3,359.8 -20.7,119.5 -44.4,238.6 -68.5,357.5 -24.2,118.9 -48.9,237.7 -71.8,356.4 m -17.2,157.7 c -3.9,53.6 -5.5,107.7 -2.3,161 3.2,53.3 11.1,105.8 25.9,156.1 14.8,50.2 36.6,98.3 67.5,142.8 l 4.5,4.4 4.5,4.3 4.4,4.4 4.5,4.4 5,3.8 5,3.9 4.9,3.9 5,3.8 M 1629.5,-31.25 c -57.1,67.7 -96.9,141.96 -124.6,220.4 -27.7,78.44 -43.3,161.06 -52.2,245.49 -9,84.44 -11.1,170.68 -11.9,256.37 -0.8,85.68 -0.2,170.8 -3.5,252.99 -0.2,119.6 -7.4,238.5 -19.7,356.8 -12.3,118.4 -29.7,236.2 -50.2,353.5 -20.4,117.4 -44,234.3 -68.6,351 m -95.5,509.2 c -4.7,54.2 -6.7,108.8 -4.2,162.8 2.6,54 9.7,107.4 23.3,159.1 13.6,51.6 33.6,101.5 61.9,148.6 3.5,4.4 7.2,8.6 11.1,12.7 3.8,4.1 7.7,8 11.8,11.9 4,3.8 8.2,7.5 12.5,11.1 4.3,3.6 8.7,7.1 13.2,10.4 M 1589.5,-30.35 c -57.5,69.7 -97.1,145.88 -124.4,226.19 -27.2,80.3 -42.1,164.73 -50.3,250.92 -8.1,86.19 -9.5,174.14 -9.8,261.5 -0.3,87.36 0.6,174.13 -3,257.94 -0.8,118 -8.4,235.3 -20.9,352.1 -12.6,116.7 -30.1,232.9 -50.7,348.7 -20.7,115.7 -44.5,231 -69.5,346 -25.1,115 -51.5,229.6 -77.3,344 m -22.2,168.9 c -5,57.6 -6.8,115.9 -2.9,173.1 4,57.2 13.6,113.3 31.5,166.6 17.9,53.3 44,103.8 80.8,149.6 1.9,1.6 3.8,3.2 5.8,4.8 l 5.7,4.8 5.7,4.8 c 2,1.6 3.9,3.2 5.8,4.8 M 1549.4,-29.65 c -56.9,70.275 -95.9,146.87 -122.6,227.49 -26.6,80.62 -40.9,165.25 -48.5,251.59 -7.6,86.34 -8.6,174.39 -8.5,261.84 0.1,87.45 1.2,174.29 -2.3,258.23 -0.5,119.7 -8.3,238.7 -21.3,357.1 -13,118.3 -31.4,236 -53,353.3 -21.5,117.2 -46.5,234 -72.7,350.4 M 1119,2543.4 c -4.4,56.4 -5.5,113.5 -0.8,169.4 4.6,55.9 14.9,110.7 33.2,162.5 18.4,51.8 44.7,100.6 81.4,144.5 M 1509.3,-28.95 c -56.3,70.55 -94.5,147.27 -120.5,227.9 -26,80.63 -39.7,165.17 -46.8,251.36 -7.1,86.19 -7.6,174.03 -7.2,261.26 0.4,87.24 1.6,173.87 -2,257.63 -0.1,119.2 -7.5,237.7 -20.3,355.5 -12.8,117.8 -31,235 -52.7,351.7 -21.7,116.7 -47,232.8 -73.9,348.5 -26.9,115.7 -55.5,230.9 -83.9,345.8 m -23.8,168.2 c -5,57.5 -6.4,115.8 -1.8,172.9 4.6,57.1 15.2,113 34.1,165.9 M 1469.3,-28.45 c -55.1,70.3 -92.6,146.56 -117.9,226.59 -25.4,80.03 -38.6,163.83 -45.4,249.23 -6.7,85.4 -7,172.38 -6.4,258.78 0.6,86.4 2.1,172.21 -1.1,255.25 -0.3,118.8 -7.5,237 -20,354.6 -12.4,117.6 -30.2,234.6 -51.7,351 -21.5,116.4 -46.7,232.2 -74.1,347.4 m -115,517.4 c -6.1,59.1 -8.3,119 -4,177.6 4.3,58.6 15.2,116 35,170.3 19.8,54.3 48.6,105.5 89,151.7 M 1429.2,-27.95 c -54.4,70.75 -91.1,147.29 -115.8,227.49 -24.7,80.2 -37.4,164.06 -43.7,249.45 -6.2,85.4 -6,172.33 -5.1,258.68 1,86.34 2.7,172.09 -0.4,255.13 0.1,120.4 -7,240.1 -19.8,359.2 -12.7,119.1 -31.2,237.5 -53.5,355.3 -22.4,117.7 -48.8,234.9 -77.4,351.4 -28.7,116.6 -59.7,232.5 -91.3,347.8 m -25.06,149.9 c -5.74,50.7 -8.39,101.8 -6.62,152.5 1.78,50.7 7.98,100.9 19.98,149.8 12,49 29.8,96.6 54.7,142 m 324,-2998.55 c -54.2,72.325 -90.5,150.29 -114.6,231.82 -24.1,81.53 -36.1,166.63 -41.7,253.2 m -3.4,262.07 c 1.3,87.45 3.2,174.3 -0.2,258.46 0.5,121.3 -6.8,241.8 -20.1,361.6 -13.3,119.9 -32.7,238.9 -56.1,357.4 -23.4,118.4 -51,236.1 -80.8,353.3 m -118.42,496.1 c -5.41,49.6 -7.66,99.6 -5.41,149.2 2.25,49.5 9,98.5 21.62,146.1 M 1349.1,-27.55 c -53.4,72.625 -89,150.7 -112.5,232.21 -23.5,81.51 -34.9,166.46 -40.1,252.83 -5.1,86.38 -3.9,174.17 -2.2,261.38 1.7,87.2 4,173.82 1.1,257.83 0.4,122.2 -7,243.7 -20.5,364.4 -13.5,120.7 -33,240.7 -56.8,360 -23.8,119.2 -51.9,237.7 -82.6,355.6 -30.7,117.8 -63.88,234.9 -97.91,351.3 m -25.6,146.9 c -5.71,49.8 -8.11,100.1 -5.77,149.8 2.33,49.7 9.42,98.9 22.68,146.5 13.27,47.5 32.72,93.5 59.8,136.8 M 1308,-27.55 c -53.4,75.25 -88.4,155.76 -111,239.58 m -37.1,259.43 c -4.1,88.47 -2,178.3 0.2,267.53 2.3,89.23 4.6,177.85 1,263.91 0.1,121.6 -7.9,242.3 -22,362.3 -14.1,120 -34.4,239.2 -59.1,357.6 -24.6,118.4 -53.6,236.1 -85.02,353.1 -31.43,117 -65.31,233.2 -99.79,348.8 -11.1,47.2 -20.28,96 -26.03,145.4 -5.75,49.3 -8.07,99.2 -5.47,148.4 2.6,49.3 10.12,97.8 24.07,144.7 13.95,46.8 34.33,91.8 62.63,134 M 1268,-27.65 c -53.1,76.575 -87.5,158.27 -109.5,243.17 -22.1,84.91 -31.7,173.02 -35,262.44 -3.4,89.41 -0.6,180.13 2.1,270.24 2.8,90.11 5.6,179.61 2.1,266.6 -0.4,121.6 -8.8,242.4 -23.3,362.4 -14.5,119.9 -35.3,239.1 -60.4,357.5 -25.1,118.3 -54.67,235.9 -86.9,352.7 -32.22,116.8 -67.11,232.9 -102.91,348.1 -11.92,48.6 -21.76,99.2 -27.73,150.4 -5.98,51.2 -8.09,103 -4.59,153.9 3.5,51 12.61,101 29.11,148.7 16.5,47.7 40.39,93 73.41,134.5 M 1228,-27.65 c -51.8,76.725 -85.3,158.33 -106.5,242.98 m -33.3,261.3 c -3,88.94 0,179.12 3,268.7 3,89.59 5.8,178.58 2.4,265.17 0.8,124.3 -7.3,247.7 -22.3,370.2 -14.9,122.5 -36.6,244.1 -63,364.9 -26.44,120.8 -57.56,240.7 -91.29,359.8 -33.73,119.1 -70.07,237.4 -106.92,354.9 -11.38,45.8 -20.73,93.6 -26.45,141.9 -5.73,48.3 -7.81,97.1 -4.65,145.2 3.16,48 11.57,95.3 26.85,140.4 15.28,45.2 37.42,88.1 68.05,127.6 M 1188,-27.85 c -50.8,76.525 -83.5,157.78 -104.1,242 -20.6,84.21 -29.2,171.39 -31.7,259.76 -2.5,88.36 0.9,177.92 4.4,266.89 3.4,88.97 6.7,177.36 4,263.4 m -21.3,368.1 c -14.5,121.9 -35.7,242.9 -61.77,363 -26.11,120.1 -57.14,239.2 -91.3,357.5 -34.16,118.2 -71.44,235.5 -110.04,351.7 -13.08,47.6 -24.36,97.5 -31.84,148.1 -7.48,50.6 -11.15,101.9 -8.99,152.4 2.17,50.5 10.16,100.2 26.01,147.5 15.84,47.2 39.54,92.1 73.12,133 M 1148,-27.95 c -50,77.025 -81.9,158.59 -101.8,242.98 -19.8,84.4 -27.7,171.63 -29.6,259.99 -2,88.36 2,177.85 5.8,266.76 3.8,88.92 7.4,177.26 4.8,263.32 1.1,124.2 -6.5,247.7 -21,370.3 -14.53,122.5 -35.95,244.2 -62.52,364.9 -26.57,120.7 -58.29,240.5 -93.41,359.1 -35.12,118.7 -73.63,236.3 -113.78,352.8 -14.12,47.7 -26.15,97.9 -34.09,148.9 -7.93,50.9 -11.78,102.7 -9.55,153.6 2.23,50.9 10.54,100.9 26.92,148.5 16.38,47.5 40.82,92.5 75.32,133.3 M 1107.9,-28.25 c -49.2,77.75 -80.3,159.85 -99.4,244.66 -19.1,84.81 -26.24,172.34 -27.55,260.93 -1.32,88.6 3.2,178.27 7.39,267.38 4.19,89.1 8.06,177.64 5.46,263.98 1.45,126.2 -6.28,251.5 -21.27,375.8 -15,124.3 -37.26,247.7 -64.9,370.1 -27.63,122.3 -60.63,243.6 -97.09,363.9 -36.46,120.2 -76.37,239.3 -117.85,357.2 -13.37,44.3 -24.94,90.7 -32.87,137.8 -7.93,47.2 -12.21,95.1 -11.02,142.3 1.2,47.2 7.87,93.8 21.85,138.3 13.99,44.5 35.29,86.9 65.74,125.9 M 1067.9,-28.55 c -48.4,78.5 -78.61,161.15 -96.95,246.38 -18.34,85.23 -24.76,173.05 -25.44,261.88 -0.68,88.82 4.38,178.67 9,267.95 4.62,89.29 8.81,178.03 6.38,264.64 1.85,127 -5.83,253.1 -21.07,378.2 -15.23,125.2 -38.02,249.3 -66.39,372.3 -28.37,123 -62.32,244.9 -99.87,365.6 -37.54,120.8 -78.69,240.3 -121.47,358.6 m -34.4,138.3 c -8.36,47.5 -12.95,95.7 -11.82,143.2 1.12,47.5 7.96,94.3 22.48,138.9 14.52,44.6 36.72,86.9 68.54,125.5 M 1026.8,-29.05 c -47.63,80.875 -76.95,165.62 -94.3,252.78 -17.36,87.16 -22.75,176.72 -22.52,267.21 0.23,90.5 6.08,181.93 11.21,272.83 5.14,90.9 9.55,181.27 6.9,269.63 1.37,125.2 -6.58,249.4 -22,372.6 -15.41,123.2 -38.28,245.5 -66.74,366.6 -28.45,121 -62.49,241 -100.25,359.7 -37.75,118.8 -79.21,236.3 -122.51,352.4 -14.05,42.9 -27.06,88.1 -36.81,134.3 -9.76,46.1 -16.25,93.1 -17.25,139.6 -1.01,46.5 3.47,92.5 15.66,136.6 12.18,44 32.07,86.2 61.9,125.1 M 986.9,-29.35 C 940,52.275 911.5,137.6 894.98,225.22 c -16.53,87.62 -21.09,177.53 -20.11,268.32 0.97,90.8 7.48,182.48 13.08,273.65 5.6,91.16 10.29,181.8 7.64,270.51 1.42,126 -6.67,251 -22.4,375.1 -15.73,124 -39.1,247 -68.23,368.8 -29.12,121.8 -64,242.4 -102.76,361.7 -38.75,119.3 -81.39,237.3 -126.01,353.8 -14.75,43 -28.36,88.4 -38.55,134.7 -10.18,46.3 -16.94,93.6 -17.98,140.3 -1.03,46.7 3.65,92.9 16.34,137.1 12.69,44.2 33.39,86.3 64.39,125 M 946.79,-29.75 c -45.92,82.2 -73.51,167.9 -89.22,255.77 -15.71,87.86 -19.54,177.9 -17.94,268.76 1.59,90.87 8.61,182.57 14.59,273.76 5.98,91.2 10.92,181.9 8.37,270.76 2.02,126.6 -5.8,252.4 -21.54,377 -15.75,124.6 -39.41,248.1 -69.06,370.4 -29.65,122.3 -65.29,243.4 -104.98,363 -39.69,119.7 -83.45,237.9 -129.32,354.6 -14.53,41.3 -28.38,85 -39.24,129.6 -10.86,44.7 -18.72,90.4 -21.25,135.7 -2.53,45.3 0.27,90.3 10.72,133.5 10.46,43.3 28.57,84.8 56.67,123.3 M 906.69,-30.15 c -45.15,84.225 -71.81,171.71 -86.56,261.21 -14.75,89.51 -17.6,181.02 -15.14,273.31 2.46,92.28 10.24,185.33 16.73,277.91 6.5,92.57 11.72,184.66 9.07,275.02 2.2,127.1 -6.12,253 -22.71,377.8 m -72.34,370.6 c -30.89,122.3 -67.8,243.3 -108.49,363 -40.69,119.7 -85.16,238 -131.16,354.8 -14.4,40.3 -28.44,82.9 -39.66,126.4 -11.22,43.5 -19.63,88 -22.76,132.2 -3.14,44.2 -1.01,88.1 8.84,130.4 9.86,42.3 27.43,83 55.18,120.9 M 866.89,-30.55 c -44.95,86.4 -70.86,175.87 -84.63,267.23 -13.78,91.36 -15.43,184.62 -11.86,278.59 3.57,93.97 12.36,188.66 19.44,282.89 7.09,94.23 12.48,188 9.25,280.14 1.38,126.7 -7.62,252.3 -24.86,376.6 -17.24,124.3 -42.71,247.4 -74.29,369.1 -31.57,121.7 -69.25,242.1 -110.89,361.1 -41.64,118.9 -87.23,236.4 -134.66,352.3 m -35.98,110.9 c -10.49,37.8 -18.96,76.3 -23.84,115 -4.89,38.7 -6.2,77.5 -2.36,115.8 3.83,38.4 12.81,76.3 28.48,113.2 M 745.59,239.1 c -12.84,92.08 -13.71,185.89 -9.5,280.36 4.21,94.46 13.51,189.58 21.02,284.26 7.51,94.69 13.23,188.94 10.28,281.68 1.6,128.1 -7.67,255 -25.51,380.5 -17.83,125.6 -44.24,249.8 -76.92,372.6 -32.67,122.8 -71.61,244.2 -114.53,364.2 -42.91,119.9 -89.79,238.3 -138.34,355.1 -13.22,35.6 -26.04,72.5 -36.79,110.1 -10.74,37.7 -19.4,76.1 -24.32,114.7 -4.92,38.5 -6.09,77.1 -1.85,115.2 4.25,38.2 13.91,75.8 30.66,112.2 M 786.89,-31.15 C 743.84,58.825 720,151.4 708.24,245.57 c -11.77,94.18 -11.44,189.95 -6.16,286.32 5.28,96.38 15.52,193.35 23.6,289.91 8.07,96.57 13.98,192.7 10.61,287.5 0.72,125.4 -8.96,249.6 -26.94,372.4 -17.99,122.9 -44.28,244.5 -76.77,364.6 -32.5,120.1 -71.19,238.8 -113.99,355.9 -42.8,117.2 -89.7,232.7 -138.6,346.6 -14.88,37.6 -29.4,76.7 -41.71,116.6 -12.31,39.9 -22.4,80.6 -28.4,121.5 -6.01,40.9 -7.93,82 -3.9,122.7 4.03,40.6 14.01,80.8 31.81,119.9 m 409,-3060.75 c -41.95,90.725 -64.73,183.84 -75.5,278.44 -10.77,94.59 -9.53,190.65 -3.46,287.27 6.07,96.61 16.97,193.78 25.54,290.58 m 11.52,288.36 c 1.4,126.8 -8.26,252.2 -26.67,376.2 -18.41,124.1 -45.56,246.7 -79.14,367.8 -33.58,121.1 -73.59,240.7 -117.71,358.7 -44.12,118 -92.36,234.4 -142.38,349 -14.15,35.8 -28.08,72.8 -40.18,110.5 -12.1,37.7 -22.36,76.2 -29.18,114.9 -6.82,38.7 -10.19,77.7 -8.5,116.6 1.69,38.8 8.43,77.5 21.86,115.6 M 706.79,-31.35 c -40.85,91.575 -62.53,185.32 -72.26,280.4 -9.73,95.07 -7.52,191.48 -0.6,288.39 6.92,96.91 18.54,194.32 27.65,291.39 9.1,97.07 15.68,193.77 12.51,289.37 1.55,127.5 -8.14,253.6 -26.79,378.3 -18.65,124.7 -46.25,248 -80.51,369.6 -34.26,121.7 -75.19,241.7 -120.48,360 -45.3,118.4 -94.97,234.9 -146.72,349.6 -14,34.2 -27.54,69.2 -39.43,104.8 -11.9,35.6 -22.15,71.8 -29.58,108.5 -7.43,36.6 -12.04,73.5 -12.65,110.7 -0.61,37.1 2.78,74.3 11.36,111.5 M 666.79,-31.15 c -39.55,92.025 -60.08,185.99 -68.8,281.16 m 2.05,288.32 c 7.69,96.8 19.97,194.05 29.65,291 9.68,96.94 16.75,193.57 14,289.17 1.95,126.6 -7.31,252 -25.58,376 -18.27,123.9 -45.56,246.5 -79.68,367.3 -34.12,120.9 -75.07,240.2 -120.65,357.5 -45.59,117.4 -95.82,232.9 -148.49,346.3 -15.55,36.3 -30.83,73.5 -44.41,111.5 -13.58,37.9 -25.45,76.6 -34.19,115.7 -8.74,39 -14.34,78.6 -15.37,118.3 -1.02,39.8 2.52,79.7 12.07,119.6 M 626.69,-31.05 c -38.02,93.275 -57.24,188.24 -64.82,284.24 -7.59,96 -3.55,193.04 4.92,290.47 8.47,97.42 21.39,195.24 31.55,292.8 10.16,97.56 17.58,194.84 15.05,291.24 2.03,128.3 -7.64,255.2 -26.69,380.6 -19.04,125.4 -47.47,249.3 -82.95,371.4 -35.48,122.2 -78.02,242.5 -125.3,360.9 -47.28,118.5 -99.31,234.9 -153.76,349.1 -12.82,30.1 -25.18,60.6 -36.52,91.5 -11.33,30.9 -21.65,62.1 -30.39,93.8 -8.75,31.7 -15.92,63.7 -20.97,96.1 -5.04,32.4 -7.97,65.1 -8.22,98.2 M 587.79,-30.65 c -37.23,93.45 -55.56,188.43 -62.25,284.34 -6.7,95.91 -1.77,192.77 7.54,289.98 9.3,97.21 22.98,194.77 33.77,292.11 10.79,97.33 18.69,194.42 16.44,290.72 2.72,129.5 -6.69,257.7 -25.85,384.2 -19.17,126.6 -48.08,251.6 -84.36,374.7 -36.28,123.1 -79.93,244.4 -128.56,363.6 -48.62,119.1 -102.23,236.2 -158.43,350.8 -13.53,30.8 -26.52,62.1 -38.42,93.8 -11.9,31.7 -22.71,63.9 -31.86,96.4 -9.15,32.5 -16.639,65.5 -21.914,98.8 -5.275,33.3 -8.331,67 -8.606,101 M 547.69,-30.25 c -36.05,95.775 -53.05,192.81 -58.43,290.63 -5.38,97.82 0.87,196.43 11.31,295.34 10.43,98.91 25.06,198.12 36.46,297.16 11.4,99.04 19.56,197.92 17.06,296.12 1.85,127 -8.04,252.7 -27.42,376.8 -19.39,124.1 -48.27,246.6 -84.41,367.2 m -127.94,356 c -48.4,116.6 -101.83,231 -158.03,343 -15.07,32.9 -29.69,66.4 -43.15,100.3 -13.465,33.9 -25.768,68.3 -36.212,103.1 -10.444,34.9 -19.028,70.2 -25.051,106 -6.024,35.8 -9.486,72.1 -9.686,108.8 M 507.69,-29.65 c -34.8,97.55 -50.44,196.12 -54.5,295.34 -4.06,99.21 3.46,199.07 15,299.18 11.54,100.11 27.09,200.47 39.08,300.71 11.99,100.23 20.42,200.32 17.72,299.92 2.15,130 -8.71,258.3 -29.81,384.8 -21.09,126.5 -52.42,251.1 -91.19,373.8 -38.77,122.6 -85,243.3 -135.89,361.9 -50.9,118.6 -106.46,235 -163.91,349.2 -14.25,31 -28.043,62.5 -40.692,94.4 -12.648,32 -24.151,64.5 -33.82,97.4 -9.668,32.9 -17.503,66.3 -22.8136,100.1 -5.3109,33.8 -8.0984,68 -7.6734,102.6 M 468.69,-28.55 C 434.54,70.9 420.03,171.17 417.26,271.96 m 19,303.65 c 12.8,101.54 29.44,203.3 41.99,305 12.56,101.7 21.04,203.29 17.54,304.59 1.22,125 -9.4,248.5 -29.59,370.3 -20.19,121.7 -49.94,241.8 -86.97,359.9 -37.03,118.2 -81.34,234.3 -130.64,348.2 -49.31,113.9 -103.6,225.6 -160.6,334.7 -11.65,24.7 -23.093,49.6 -34.138,74.6 -11.046,25.1 -21.692,50.3 -31.749,75.7 -10.056,25.5 -19.5214,51.1 -28.2042,77.1 -8.6828,25.9 -16.5828,52.1 -23.5078,78.6 M 428.59,-27.45 c -31.6,96.825 -44.82,194.23 -46.92,292.01 m 19.76,294.22 c 12.85,98.3 29.56,196.77 42.84,295.17 13.28,98.41 23.14,196.75 22.32,294.85 m -23.21,380.9 c -19.22,125.4 -49.05,248.9 -86.85,370.4 -37.81,121.4 -83.59,240.8 -134.73,357.7 -51.13,116.9 -107.61,231.3 -166.809,343 -6.55,13.7 -13.05,27.4 -19.481,41.2 -6.432,13.8 -12.794,27.6 -19.069,41.4 -6.275,13.9 -12.4625,27.7 -18.5438,41.7 C -8.184,2739 -14.159,2753 -20.009,2767 M 389.49,-26.05 c -30.98,100.325 -42.74,201 -43.13,301.92 -0.38,100.93 10.62,202.1 25.18,303.41 14.56,101.32 32.69,202.78 46.55,304.28 13.87,101.51 23.48,203.04 21,304.54 2.28,121.7 -7.08,242.1 -25.98,360.9 -18.91,118.8 -47.36,236 -83.27,351.1 -35.91,115.1 -79.29,228.2 -128.04,338.9 -48.75,110.6 -102.884,218.8 -160.309,324.2 -2.625,5.2 -5.237,10.4 -7.842,15.6 -2.605,5.2 -5.202,10.4 -7.795,15.6 -2.594,5.2 -5.185,10.4 -7.777,15.6 -2.592,5.3 -5.186,10.5 -7.786,15.7 M 349.39,-24.25 c -28.9,100.325 -39.2,200.76 -38.47,301.29 0.73,100.52 12.49,201.15 27.72,301.87 15.23,100.71 33.91,201.52 48.49,302.4 14.59,100.89 25.06,201.89 23.86,302.89 m -26.54,380.4 c -20.77,124.9 -52.52,247.8 -92.4,368.4 -39.88,120.7 -87.89,239 -141.2,354.8 -53.309,115.8 -111.909,229.1 -172.959,339.6 M 310.39,-22.15 c -27.65,100.675 -36.71,201.24 -34.8,301.79 1.91,100.54 14.79,201.06 31.04,301.63 16.24,100.57 35.84,201.2 51.19,301.96 15.35,100.76 26.44,201.67 25.67,302.77 4.02,122 -4.25,242.7 -22.65,361.8 -18.39,119.2 -46.91,236.6 -83.37,351.8 -36.47,115.3 -80.87,228.3 -131.05,338.6 -50.167,110.4 -106.104,218 -165.629,322.4 M 271.39,-19.75 c -26.35,102.825 -33.89,205.3 -30.45,307.61 3.44,102.32 17.86,204.47 35.41,306.65 17.56,102.17 38.26,204.38 54.26,306.8 16,102.39 27.3,205.09 26.08,308.09 2.45,107 -4.33,213.4 -19.11,318.7 -14.79,105.3 -37.57,209.5 -67.13,311.8 -29.55,102.3 -65.88,202.9 -107.75,301 -41.87,98.1 -89.284,193.7 -141.009,286.3 M 232.29,-16.85 c -25,103.2 -31.17,205.83 -26.41,308.16 4.75,102.34 20.43,204.39 39.12,306.43 18.7,102.05 40.41,204.1 57.22,306.43 16.82,102.33 28.74,204.93 27.87,308.13 2.9,106.8 -3.57,213.1 -18.18,318.3 -14.62,105.2 -37.38,209.2 -67.06,311.4 -29.68,102.2 -66.28,202.5 -108.58,300.2 -42.304,97.8 -90.304,193 -142.779,285 M 193.19,-13.45 c -23.78,107.425 -27.91,213.96 -20.94,320.05 6.97,106.09 25.05,211.73 45.68,317.37 20.63,105.63 43.82,211.26 61.03,317.32 17.21,106.01 28.43,212.51 25.13,319.91 0.33,85.8 -5.05,171.4 -15.75,256.3 -10.71,84.9 -26.74,169.2 -47.74,252.2 -20.99,83 -46.94,164.8 -77.49,244.9 -30.54,80 -65.669,158.3 -105.019,234.2 M 154.09,-9.95 c -22.17,111.07 -24.22,220.96 -15.12,330.23 9.1,109.28 29.33,217.95 51.72,326.61 22.39,108.66 46.93,217.31 64.62,326.53 17.7,109.18 28.56,218.98 23.58,329.98 -0.63,90.8 -8.24,181.1 -22.04,270.5 -13.81,89.4 -33.8,177.8 -59.2,264.6 -25.39,86.9 -56.18,172.4 -91.57,255.8 -35.396,83.4 -75.389,164.8 -119.189,243.7 M 116.09,-5.75 C 95.565,98.875 93.628,202.26 102.32,304.98 c 8.68,102.72 28,204.78 49.97,306.76 21.98,101.99 46.61,203.9 65.95,306.31 19.34,102.45 33.38,205.35 34.15,309.35 3.8,91 0.42,182 -9.49,272.2 -9.92,90.3 -26.37,179.8 -48.73,267.9 -22.37,88.1 -50.64,174.7 -84.18,259.3 -33.537,84.5 -72.349,166.9 -115.799,246.5 M 76.79,-0.95 c -18.825,110.5 -18.006,219.38 -6.367,327.42 11.639,108.05 34.097,215.25 58.557,322.4 24.45,107.15 50.91,214.23 70.53,322.05 19.63,107.78 32.43,216.38 29.58,326.38 0.78,79 -3.87,158 -13.55,236.3 -9.68,78.3 -24.41,156 -43.79,232.6 -19.38,76.5 -43.42,151.9 -71.74,225.7 -28.319,73.7 -60.919,145.8 -97.419,215.7 M 38.791,4.35 c -17.55,112.2 -15.05,222.52 -1.644,331.87 13.406,109.34 37.719,217.72 63.793,326.04 26.08,108.31 53.91,216.57 74.37,325.67 20.46,109.07 33.53,219.07 30.08,330.77 0.32,77.1 -4.65,154.2 -14.53,230.5 -9.89,76.4 -24.68,152.1 -43.98,226.7 -19.31,74.6 -43.13,148.1 -71.076,219.9 -27.945,71.8 -60.013,142 -95.813,210.1 M 0.591,10.35 C -15.484,124.4 -11.084,236.28 4.2748,347.05 19.634,457.82 45.953,567.47 73.715,677.07 c 27.765,109.6 56.965,219.13 78.105,329.63 21.13,110.6 34.2,222.1 29.67,335.7 0,54.5 -2.52,109.1 -7.63,163.4 -5.11,54.4 -12.79,108.4 -23.04,162 -10.25,53.6 -23.07,106.6 -38.46,159 -15.388,52.3 -33.344,103.8 -53.869,154.4 M 6.991,526.85 c 32.875,112.61 63.943,228.18 89.19,345.24 25.249,117.06 44.669,235.61 54.259,354.21 9.59,118.6 9.34,237.3 -4.77,354.5 -14.1,117.2 -42.05,233 -87.879,346 -1.625,4.4 -3.275,8.8 -4.95,13.3 -1.675,4.4 -3.375,8.8 -5.1,13.2 -1.725,4.4 -3.475,8.7 -5.25,13.1 -1.775,4.4 -3.575,8.8 -5.4,13.1 m -60.8,-1443.65 c 31.0497,104.31 61.4,211.01 87.179,319.05 25.78,108.05 46.99,217.4 59.76,327.1 12.77,109.7 17.09,219.8 9.11,329 -7.98,109.3 -28.27,217.9 -64.749,324.7 -3.675,12.1 -7.475,24.2 -11.416,36.2 -3.94,12.1 -8.021,24 -12.259,36 -4.237,11.9 -8.631,23.8 -13.197,35.6 -4.565,11.8 -9.303,23.5 -14.228,35.2 m 3.7,-1177.75 c 29.2,95.01 52.656,192.88 68.842,292.05 16.187,99.1 25.097,199.6 25.217,299.7 m -27.558,297.9 c -19.001,97.9 -48.326,193.9 -89.501,286.5 m -3.4,-1166.35 c 30.625,93.69 55.218,190.35 72.328,288.45 17.109,98.1 26.734,197.6 27.421,296.9 0.688,99.2 -7.562,198.2 -26.203,295.3 -18.64,97.1 -47.671,192.4 -88.546,284.1 m -0.9,-1122.45 C 5.4658,936.31 28.009,1022 44.351,1109 c 16.342,86.9 26.483,175.1 29.252,263.3 2.769,88.2 -1.835,176.4 -14.98,263.4 -13.145,87 -34.832,172.8 -66.232,256.1 m 19.6,-818.3 c 17.2,67.8 29.487,136.9 36.689,206.6 m -19.21,418 c -13.836,68.6 -33.1042,136.1 -57.979,201.7 m 16.6,-826.4 c 14.725,55.3 26.506,111.7 34.973,168.5 8.468,56.8 13.621,114.2 15.09,171.6 1.468,57.3 -0.747,114.8 -7.018,171.8 -6.27,57 -16.595,113.5 -31.345,169.2 m -29.8,-660.8 c 14.825,53.6 26.6562,108.2 35.1891,163.4 8.5329,55.1 13.7669,110.7 15.3979,166.5 m -6.22,166.8 c -5.8795,55.4 -15.667,110.4 -29.667,164.5"
     id="path4136" />
</svg>
