<?xml version="1.0" encoding="UTF-8" standalone="no"?>
<svg
   xmlns:dc="http://purl.org/dc/elements/1.1/"
   xmlns:cc="http://creativecommons.org/ns#"
   xmlns:rdf="http://www.w3.org/1999/02/22-rdf-syntax-ns#"
   xmlns:svg="http://www.w3.org/2000/svg"
   xmlns="http://www.w3.org/2000/svg"
   version="1.1"
   id="svg2"
   viewBox="0 0 3000 3000"
   height="3000"
   width="3000">
  <defs
     id="defs4">
    <filter
       style="color-interpolation-filters:sRGB"
       id="filter4141">
      <feGaussianBlur
         stdDeviation="10"
         id="feGaussianBlur4143" />
      <feSpecularLighting
         stdDeviation="12.6"
         id="feSpecularLighting4145"
         surfaceScale="5"
         specularConstant="2"
         specularExponent="39.299999999999997"
         result="result1">
        <feDistantLight
           id="feDistantLight4147"
           azimuth="269"
           elevation="55" />
      </feSpecularLighting>
      <feComposite
         id="feComposite4149"
         in2="result1"
         in="SourceGraphic"
         operator="arithmetic"
         k2="1"
         k3="1"
         result="result2" />
      <feComposite
         id="feComposite4151"
         in2="SourceGraphic"
         in="result2"
         operator="in" />
    </filter>
  </defs>
  <metadata
     id="metadata7">
    <rdf:RDF>
      <cc:Work
         rdf:about="">
        <dc:format>image/svg+xml</dc:format>
        <dc:type
           rdf:resource="http://purl.org/dc/dcmitype/StillImage" />
        <dc:title></dc:title>
      </cc:Work>
    </rdf:RDF>
  </metadata>
  <path
     id="path4136"
     d="m 3002.6,2717.3 c -10.9,95.2 -22.5,190.3 -34.7,285.3 m 24.7,-574.5 c -23,193.3 -44.7,386.7 -71.3,579.5 m 66.4,-871.6 c -39.1,291.6 -72.8,583.9 -113.1,875.3 m 111.1,-1164.6 c -49.1,342 -91.9,684.9 -137.8,1027.3 m 135.8,-1305.1 c -62.8,435.7 -121.4,872 -182.4,1308 M 2996.6,68.96 c 12.7,101.17 9.3,203.38 6.6,305.03 m -1.7,152.55 C 3053.8,1320.1 2833.8,2094.8 2755.7,2878.9 M 2971.8,75.682 c 12.7,99.338 6.8,199.728 1.4,299.338 m -5.7,149.63 c 22.2,386.34 -19.8,773.05 -77.6,1154.55 m -92.5,573.3 c -35.3,208.6 -61.3,418.5 -88.2,628.3 M 2948.1,82.403 c 11.8,102.747 3.4,206.297 -4.5,308.977 m -9.1,154.31 c 22.8,590.71 -92.2,1174.41 -188,1754.21 M 2924.3,88.243 c 12.1,102.987 1.4,206.757 -9.2,309.357 m -13.2,154.36 c 12.3,327.23 -22.9,654.24 -73.7,977.04 m -66.4,408.5 c -52.7,315.1 -94.6,631.9 -146.7,947.1 M 2901.4,93.092 C 2913,194.08 2901.1,295.77 2888.1,395.98 M 2871,546.86 c -3.9,50.49 -5.5,101.31 -1.3,151.84 m -25.2,406.9 c -55.2,447.1 -134,890.8 -207.5,1335.1 M 2877.6,46.922 c 12.3,125.298 0.7,251.548 -18.1,375.578 m -45.1,600.2 C 2761.5,1491.5 2673.5,1955.3 2594,2420 M 2859.8,102.68 c -19.2,349.17 -81.5,694.67 -97.3,1044.02 -18.2,144.1 -40.8,287.7 -65.5,430.9 m -75.6,421.9 c -27.4,147.4 -51.9,295.4 -76.2,443.4 m -36.5,221.9 c -12.4,74 -25,147.9 -38.3,221.7 M 2820.5,341.55 c -44.6,260.18 -59.4,509.34 -87.6,736.55 m -75.9,489.4 c -83.7,438.7 -158.7,879 -235.1,1319 m 401.2,-2777.1 0.6,61.39 -4,61.26 m -18.4,120.78 c -103.7,487.01 -116.2,988.77 -234.8,1473.47 -66.1,352.7 -136.1,704.8 -193.2,1059.2 m 434,-2773.35 c -26.7,340.07 -138.9,667.28 -157.3,1009.05 -41.4,260.2 -90.9,519 -141.4,777.5 m -96.2,492.7 c -31.4,164.4 -61.5,329 -88.6,494.1 M 2728,481.01 l -19,59.3 -19.6,59.11 m -85.2,575.98 c -106.3,570.5 -229.8,1137.7 -331,1709.2 m 469.6,-2517 c -22.4,81.85 -47.8,162.13 -77,241.74 m -173.7,934.56 c -97.2,445 -185.2,892.1 -269.5,1339.7 M 2755.9,247.56 c -98.1,309.73 -186.8,621.5 -232.5,943.64 -90,437 -188.5,872.1 -278.5,1309.1 M 2667.8,480.96 c -142,308.3 -146.2,655.04 -241,977.24 m -90.2,386.3 c -21.8,96.7 -43,193.6 -63.9,290.5 m -61.7,291 c -40.6,194.1 -80.2,388.4 -120,582.6 M 2494,995.73 C 2377.4,1494.9 2253.8,1992.5 2143.7,2493.2 M 2740.9,123.72 c -7.2,89.61 -29.6,177.52 -61.2,261.5 m -54,123.65 c -138.6,244.24 -164.4,529.43 -241.1,794.93 m -59.8,225.1 c -97.2,365.6 -182.6,734.2 -263.1,1103.8 M 2414.4,1042.6 C 2236.5,1691 2059.6,2340.4 1927,2999.9 M 2732.9,16.179 c -3.7,52.939 -10.5,105.661 -20.4,157.801 m -39.4,153.98 c -85.3,224.12 -240.9,421.29 -278.7,662.72 m -54,194.22 C 2156.7,1781.5 1999.6,2386.3 1870,2997 M 2433.4,778.46 c -21.4,55.71 -40.4,112.3 -58.2,169.25 m -54.6,181.59 c -201,612.4 -373.2,1234.5 -508.7,1864.8 M 2683.4,132.43 c -19.2,177.31 -92.3,347.27 -202.1,487.26 m -85.7,185.21 c -25.2,63.18 -47.7,127.39 -69.1,191.94 m -62.3,194.56 c -20.6,64.8 -41.8,129.4 -65.3,193.2 m -129,396.9 c -30.6,99.7 -60,199.7 -88.4,300 M 2656.7,136.29 c -54.1,386.63 -365.2,675.4 -432.9,1061.31 -28.9,85.4 -58,170.7 -90.1,255 m -128.3,378.9 C 1883.6,2212.2 1781,2598.8 1691.5,2988.3 M 2622,141.13 c -3.1,264.15 -204,462.54 -298.2,695.13 m -84.9,215.04 c -120.2,316.2 -235.8,634.3 -339.8,956.2 M 2578.4,145.87 c -25.8,368.16 -321.9,638.26 -407.9,989.43 -240.5,602.3 -458.7,1215.6 -605,1848.3 m 962.4,-2832 c -15.2,365.43 -302.6,637.55 -394.3,981.3 -249.4,602 -482.5,1213.6 -633.1,1848.8 M 2459.1,293.24 c -22.6,134.75 -79.3,263.15 -160.9,372.51 m -411.8,967.75 c -182.3,437.2 -335.1,887 -451.8,1346.2 M 2407,105.54 c 2.1,47.92 1,95.96 -2.9,143.76 m -23,141.76 c -22.5,93.51 -61.9,183.39 -118.8,261.14 m -190.4,437.9 c -197,464.2 -402.1,925.8 -561.7,1404.6 M 2338.7,168.02 c 2.8,45.11 1.3,90.43 -3.4,135.36 m -25.1,132.34 c -23.9,87.31 -61.9,170.64 -111.3,246.45 m -109.7,267.06 c -137.4,336.07 -288.3,666.47 -428,1001.67 m -197.9,507 c -61.1,171 -116.1,344.2 -161.9,519.9 M 2267.2,172.76 c 3.5,44.84 3.5,89.96 0,134.8 m -20.6,132.38 C 1937.2,1296.7 1490.1,2100.8 1235.8,2977.8 M 2193.9,178.6 c 4,44.45 4.8,89.18 2.6,133.76 m -16.2,132.32 C 1910.2,1314.9 1437.5,2106.6 1171.8,2977.8 M 2119.7,182.35 c 5.5,44.28 7.8,88.98 6.5,133.59 m -13.3,132.28 C 1947.1,1080.6 1647.6,1665.6 1387.8,2262.2 m -241.4,605 c -14.1,41.1 -27.4,82.5 -40.2,124.1 M 2044.5,187.19 c 39.4,413.38 -171.4,791.72 -293.3,1173.91 -223.3,543.5 -512.8,1059.3 -697.4,1618.6 M 1967.9,160.31 c 57.4,408.26 -128,795.97 -246,1176.49 -48.4,124 -101.3,246.2 -156.4,367.3 m -223.6,477.3 c -124,262 -237.6,528.9 -339.3,800.3 M 1899.4,194.8 c 28.5,174.87 12,356.78 -46.9,523.84 m -309,958.46 c -200.6,444.4 -421.2,880.1 -597.07,1335.3 M 1795.8,16.179 C 1926.5,526.95 1739.2,1056.4 1568.9,1534.1 m -172.6,398.8 C 1231.9,2288.3 1063.5,2642 913.26,3003.7 M 1724.3,19.044 c 27.8,116.406 47.9,235.046 52.8,354.786 m -5.5,178.6 c -67.9,666.97 -343.8,1283.27 -631,1880.37 -86.7,187 -173,374.3 -253.34,564.2 M 1654.9,22.791 c 27.7,112.679 49.3,227.229 57,343.149 m -0.5,173.21 c -43.1,353 -92.4,710.45 -228.5,1041.65 m -170.1,417.1 c -146.2,332.7 -296.6,663.5 -445.03,995.2 M 1587.3,25.766 c 30.7,115.944 53.3,234.364 61.5,354.154 m 0.8,179.14 C 1622.1,1150.6 1428.5,1715.8 1182.4,2249.1 1113.8,2407 1042.9,2563.9 972.85,2721.2 M 1521.9,29.622 c 148.2,549.988 28.6,1134.078 -143,1664.278 -77.1,221.4 -168.9,437.4 -260.2,653.2 M 1458.3,32.487 C 1649.4,747.35 1437.7,1516.1 1169.7,2181.4 m -166.5,404.5 c -56.08,134.4 -112.04,268.8 -165.23,404.4 M 1396.7,36.344 C 1551.5,592.5 1465.6,1201.2 1300.3,1744.6 M 1336.7,40.2 c 34,111.34 59.6,225.4 73.6,341.03 m 11.5,173.65 c 0.4,58.19 -2.4,116.43 -9.2,174.23 m -82.5,791.29 c -67.4,250.2 -146.8,497.1 -232.4,741.6 M 1278.2,44.057 c 34.8,111.033 61.3,224.803 76.5,340.213 m 6.8,347.82 c 28.1,310.31 -20.5,622.41 -99.6,922.01 m -358.59,1115 c -19.61,55.9 -39.53,111.7 -59.68,167.4 M 1221.3,47.914 C 1274.4,213.53 1309,385.78 1315,559.87 M 1261.7,1505 c -87.1,378.6 -202.9,749.8 -323.22,1119 M 1213.4,218.72 c 40.6,169.21 59.2,344.21 48.8,518.11 m 13.6,386.27 c -23.4,291.4 -87.9,577.8 -165.5,859 m -247.49,841.1 c -17.41,57 -34.94,114 -52.7,170.9 M 1111.7,54.635 c 18.6,55.035 34.8,110.885 48.6,167.315 m 33.9,170.42 c 28.9,363.58 69.8,733.13 -2.8,1094.43 m -80.6,369.1 C 1039.1,2142 961.05,2426.4 881.28,2710.3 M 1059.2,58.492 c 19.1,54.768 35.5,110.458 49.6,166.718 m 34.5,169.91 c 24,239.27 42.1,479.24 48.3,719.68 M 1008,62.349 C 1150.9,527.54 1168.5,1028.4 1111.6,1509 1060.1,1863.3 964.94,2209 878.47,2555.8 M 957.73,66.205 C 1096.2,508.98 1119.9,984.24 1084.9,1444.2 1040.2,1813.4 935.52,2171.6 863.8,2535.8 m -50.98,230.5 C 796.06,2843.2 779.41,2920.1 763,2997 M 908.66,68.96 C 1048.5,511.25 1076,986.22 1044.3,1446.4 987.44,1971.4 828.28,2478.1 746.8,2998.9 M 860.57,72.817 C 996.57,486.94 1022.9,931.5 1013.3,1364.1 970.87,1918 803.24,2451.9 728.9,3000.9 M 813.51,75.682 C 945.71,468.09 971,888.68 981.5,1299.2 c -3.24,63.5 -8.72,126.9 -15.84,190.1 m -55.91,371.6 C 843.2,2241.5 765.93,2620.3 709.5,3002.6 M 767.5,78.547 C 841.91,281.5 887.81,496.17 890.16,712.8 m 47.88,657.6 c -5.17,73.4 -13.07,146.7 -23.18,219.6 M 770.03,2473.6 C 739.71,2650.1 711.11,2827 688.9,3004.7 M 722.8,81.522 c 18.78,50.598 35.72,101.878 50.58,153.758 m 38.24,156.96 c 30.67,261.41 81.72,520.71 92.99,784.16 m -8.14,234 C 871.71,1678.3 828.45,1944 784.4,2209.3 M 678.9,83.395 c 18.95,50.405 35.93,101.555 50.91,153.275 m 63.66,315.48 c 6.08,53.35 9.8,106.97 11.04,160.65 m 60.47,512.7 c -1.01,172.7 -19.23,344.8 -43.2,515.7 m -46.67,317.1 c -48.9,316.6 -101.81,632.8 -130.92,952 M 635.99,85.378 c 38,100.182 68.31,203.322 89.8,308.302 m 25.42,158.19 c 6.2,53.11 10.08,106.49 11.49,159.94 m 63.11,496.89 c -10.48,603.7 -164.11,1193 -204.82,1793.9 m -27,-2915.348 c 38.2,99.638 68.4,202.348 89.94,306.868 m 25.59,157.52 c 6.3,52.85 10.35,105.98 12.08,159.18 m 50.07,255.34 C 836.68,1652.2 623.71,2323.1 595.89,3004.7 M 552.79,88.243 C 682.42,451.06 712,841.35 747.37,1221.9 c 1.81,134.2 -6.4,268.4 -19.93,401.9 m -114.68,888.4 c -19.47,164.3 -35.35,329 -43.17,494.3 M 512.28,89.235 C 645.75,468.95 680.56,876.42 709.47,1274.9 c -0.33,132.2 -9.8,264.3 -23.7,395.7 m -108.54,876.2 c -16.5,153.8 -29.36,308.1 -34.45,462.8 M 472.78,90.117 C 609.54,483.97 650.13,906.47 669.07,1320.2 660.65,1887.5 515.46,2443.5 515.28,3011.3 M 434.08,89.235 c 19.32,48.995 36.53,98.815 51.65,149.255 m 38.82,152.64 c 29.96,213 65.36,425.17 99.23,637.57 m 8.71,329.7 C 609.64,1877 505.59,2388.5 489.37,2907.6 M 396.17,89.235 C 415.6,137.92 432.89,187.46 448,237.65 m 38.73,151.94 c 29.65,212.9 65.32,424.89 99.37,637.11 m -13.81,662.2 c -40.5,406.9 -102.75,812.2 -112.81,1221.6 M 359.16,87.252 c 38.67,96.968 68.76,197.338 90.2,299.498 m 25.73,154.03 c 3.62,158.13 59.61,308.94 71.99,466.02 m 12.01,314.5 C 542.84,1853.8 434.78,2379.4 428.98,2912.5 M 322.96,85.378 c 38.75,96.592 68.8,196.652 90.14,298.502 m 25.52,153.57 c 16.88,237.59 99.63,468.75 82.63,708.95 M 263.16,20.036 C 352.64,231.63 407.63,458.8 415.47,688.78 m 68.66,690.32 c -23,514.3 -120.23,1023.4 -117.56,1539.1 M 252.96,78.547 C 330.21,270.94 372.42,476.99 380.27,684.04 m 59.99,340.16 c 23.13,316.6 -6.72,633.9 -40.58,948.6 M 202.05,30.503 C 269.91,187.77 311.98,355.48 333.37,525.2 M 409.5,1086 C 438.44,1701.6 285.42,2308.7 302.49,2923.9 M 185.75,68.96 c 61.33,147.24 96.7,304.22 115.19,462.31 m 13.42,158.5 c 78.93,315.33 73.52,644.43 45.29,965.93 m -86.16,969.6 c -4.43,100.1 -6.07,200.4 -3.54,300.6 M 153.25,62.349 C 194.12,160.55 223.62,263.27 244,367.6 m 24.17,157.29 c 65.74,407.26 109.2,821.81 45.7,1232.41 -36.06,389.9 -90.81,779.9 -76.62,1172.5 M 121.45,54.635 C 261.35,442.03 281.9,860.74 307.95,1267.8 c -1.32,205.1 -19.74,409.7 -40.92,613.6 m -64.77,978.8 0.85,36.1 1.24,36.2 M 90.248,45.93 C 234.14,450.24 254.95,887.09 272.62,1311.7 261.19,1854.4 141.61,2391.4 171.15,2935.5 M 59.745,36.344 C 157.89,254.63 169.25,497.41 198.99,731.3 m 17.8,940 c -41.71,421.1 -99.81,843 -79.04,1267.2 M 29.942,24.774 C 179.4,450.94 196.32,911.13 203.21,1358.2 181.39,1909.7 61.081,2457.8 108.94,3011.3 M 55.146,171.88 C 130.09,405.82 111.25,655.95 162.28,894.37 M 122.21,1919 C 86.154,2259.2 48.044,2601.5 70.243,2944.1 M 26.443,157.44 C 157.24,757.31 165.79,1378.4 80.138,1985.4 46.012,2304.8 14.336,2626.5 36.141,2948 M -1.6552,142.02 C 138.74,777.89 125.4,1436.6 35.371,2078.6 5.112,2368 -18.505,2659.7 1.744,2950.8 M 4.0435,258.27 C 86.777,811.86 106.29,1376.5 15.578,1930.3 l -5.9358,57.8 M 3.0437,435.12 C 49.458,856.43 74.672,1284.8 6.243,1705.3 M 2.9437,729.99 C 31.546,964.2 21.32,1201.1 0.34432,1435.5 M 2877.6,27.749 C 2592.6,97.842 2351.8,-136.77 2071.1,-144.71 1413.9,-258.45 758.61,-68.268 117.65,53.643 M 2544.6,103.4 C 1863.2,-165.5 1098.3,-116.23 410.38,101.07 349.88,115.2 289.05,127.99 227.75,138.16 M 2871.7,194.8 C 2503.7,275.39 2167,32.031 1800.4,37.271 1368.5,-1.5507 934.03,67.463 518.08,181.49 M 374.9,210.05 c -48.03,8.15 -96.37,14.61 -144.95,18.47 m 2633.75,40.44 c -54.1,18.74 -111.5,27.16 -168.7,27.29 m -168.7,-17.9 C 1876.1,81.91 1175.2,97.641 523.69,278.24 c -146.01,26.97 -296.3,43 -444.149,21.35 M 2851.9,333.2 C 2440.1,435.21 2042.9,197.08 1629.2,231.81 1167,227.15 716.96,352.86 258.16,387.91 M 2838,389.95 c -131.2,43.98 -272.7,41.64 -408.4,24.21 M 2224.2,381.95 C 1662,270.35 1085.4,353.86 526.7,443.92 m -99.02,9.34 C 361.57,458 295.1,459.25 228.95,454.41 M 2837.6,435.12 c -461,119.89 -927.8,-77.26 -1393.9,-21.29 -443.5,16.22 -885.93,148.4 -1330.16,79.93 M 2999.6,419.7 C 2474.5,639.09 1903.7,426.66 1358.3,496.2 915.37,513.47 456.79,638.51 21.234,512.92 M 2990.6,457.16 c -567.1,214.6 -1178.9,28.05 -1764.8,110.59 -331.64,25.63 -664.87,68.5 -997.65,35.52 M 2983.7,494.74 C 2482.4,679.76 1940.4,562.98 1421.8,609.24 M 717.9,653.3 C 514.14,661.34 307.41,664.15 107.54,617.6 M 2977.8,533.19 c -273.4,92.86 -565.7,112.14 -852.4,104.68 m -368.8,1.64 C 1203,640.17 646.8,746.8 95.647,651.32 M 2971.8,574.4 C 2356.2,756.68 1707.5,621.78 1079.2,706.71 720.88,727.81 357.29,741.98 3.5436,668.62 M 2966.9,619.69 C 2364.4,789.97 1732.7,656.2 1119.2,737.01 811.64,753.23 502.87,764.67 195.45,739.8 M 2960.9,667.63 c -70.7,20.73 -142.7,37.07 -215.3,49.55 M 2085,742.56 C 1441.8,719.63 799.91,823.23 156.95,775.28 M 2954,719.53 c -141.5,38.71 -287.2,61.67 -433.5,71.34 m -220,4.93 c -414.3,-32.88 -830.7,-16.42 -1244.9,9.1 M 543.25,824.91 C 372.38,827.46 201.29,824.11 30.942,809.88 M 2945.1,774.29 c -143.2,37.64 -290.5,59.52 -438.3,67.53 m -222,1.87 c -74.1,-2.67 -148,-8.55 -221.6,-17.39 m -471.5,-8.67 c -157.2,3.1 -314.3,10.94 -471.3,19.55 m -471.37,24.39 c -157.13,6.33 -314.44,9.6 -471.68,5.83 M 2936.2,832.91 c -145,35.74 -293.6,56.14 -442.8,62.34 m -223.8,-0.98 C 1725.1,826.47 1175.5,872.37 630.28,904.92 M 2700.4,933.96 C 2318.7,996.33 1936.5,888.1 1554,903.58 m -464.6,17.58 c -309.57,18.56 -618.8,45.69 -929.05,50.13 m 2752.05,-15.3 c -302.5,66.81 -618.4,73.71 -923.3,17.86 m -903.5,-6.35 c -312.03,19.9 -623.46,50.1 -936.05,60.4 m 2748.85,-7.7 c -226.9,48 -460.8,63.8 -691.9,43 m -672.7,-61.4 c -487.7,-1.6 -971.73,68.3 -1458.358,88.6 M 2926.3,1078 c -595.9,158.5 -1200,-85.79 -1801.6,-11.5 -334.37,20.2 -666.96,62.7 -1001.35,82.6 m 2874.25,-21.2 c -262.5,59.5 -533.9,86.9 -802.6,62.5 m -266.2,-42.2 c -605.9,-97.9 -1216.3,23 -1821.06,65.3 m 2871.06,-15.4 c -267,57.4 -542.5,84 -814.9,56.2 m -652.6,-84.6 c -476,-9.8 -947.54,68.4 -1420.452,109.1 m 2868.052,-9.5 c -88,18 -176.6,33 -265.8,43.8 m -268.7,19.5 c -437.2,6.6 -862.6,-165.3 -1301.5,-95.4 m -768.33,76.7 c -93.93,11.7 -188.09,21.5 -282.028,33.2 m 2587.558,38 c -399.7,70.1 -795.2,-63.6 -1191.4,-93.2 m -356,6.9 c -354.45,27.4 -707.04,73.9 -1059.753,117.5 m 2864.353,-1.9 c -362.4,69.4 -742.7,88.5 -1101.5,-11.5 m -340.1,-46.1 C 990.87,1339.6 511.58,1430.2 32.242,1487.4 m 2862.258,1 c -184.8,34.3 -372.5,55.2 -560.6,54.7 M 2053.2,1525 c -204.7,-28 -402.6,-101.3 -610.8,-103.3 m -337.6,3.6 c -112.95,7.2 -225.52,19.3 -337.84,33 m -335.58,41.3 c -140.47,19.6 -281.08,38.3 -421.138,60.7 m 2862.458,2 c -321.3,69.1 -655.5,65.8 -978.8,11.5 m -320.4,-70.4 c -261.3,-36.4 -526.2,-13.8 -786.71,17.9 m -315.91,40 c -136.89,18.9 -273.64,38.9 -410.135,60.5 m 2788.155,16.3 c -95.4,16.8 -191.4,30.1 -287.9,38.7 m -290.5,11.2 c -101.8,0.7 -203.2,-11 -303.4,-28 m -300.5,-59.3 c -298,-77.8 -603.7,-54.5 -904.64,-10.1 m -310.79,40.8 c -137.88,20.4 -275.66,41.5 -413.13,64.5 m 2787.06,18.2 c -461.9,99.3 -937.8,29.7 -1389.1,-83.9 l -34.7,-3.3 -34.7,-2.5 m -292.2,1.8 c -355.49,29.5 -708.17,85 -1059.659,144.6 m 2489.559,57.7 c -198.8,15.4 -399.7,11 -596.8,-20.7 m -591.2,-114 C 940.92,1679.4 570.45,1755 201.15,1810.2 m 2628.95,50 c -203.4,36 -409.9,56.2 -616.6,52.1 m -308,-25.8 c -99.4,-12.3 -195.8,-40.4 -292.2,-66.4 m -583.4,-52.7 c -283.38,23.2 -564.17,69.6 -844.35,116.8 m 2808.05,19.3 c -120.5,25.7 -242.1,46.8 -364.5,61.6 m -184,17.2 c -61.5,4 -123.2,6.2 -184.8,6.4 m -367.7,-25 c -124.3,-15.9 -244.4,-52.6 -365.5,-83.3 m -370.5,-46.8 C 771.4,1845 392.13,1920.3 13.941,1988.1 m 2959.859,-4.9 c -120.1,24.8 -241.2,45.3 -363,59.7 m -183.2,16.8 c -61.2,3.9 -122.6,6.1 -183.9,6.3 m -737.5,-109.8 c -163.9,-50.6 -338.1,-57.7 -508.19,-45.6 m -510.31,65.3 c -111.35,18.4 -222.46,38.2 -333.55,58.1 M 2953,2062.9 c -547.9,130.6 -1127.5,94.5 -1663,-71.7 -363.61,-43.4 -723.22,51 -1080.06,105.3 M 2955,2137.8 c -556.9,134.5 -1146.9,99.7 -1691.1,-71.3 -384.64,-47 -764.09,59.6 -1140.65,120.4 M 2079.9,2296.1 C 1753.7,2297.7 1445,2177.7 1127.6,2131.7 763.24,2113.4 408.92,2217.2 52.637,2275.3 M 2889.5,2306 c -132.6,27.9 -266.9,48.3 -401.9,60.4 m -406.7,10.9 c -270.8,-10.6 -540.8,-58.2 -796.3,-149.3 m -554.38,-2.1 c -213.11,32.5 -424.58,74.7 -636.172,115.7 M 2457.3,2448.5 c -414.4,33.9 -837.2,-12 -1230,-150.6 m -548.01,7.6 c -200.69,31.6 -399.18,75.3 -598.749,113 M 2846.9,2472.3 C 2279.5,2596.5 1684.3,2540.5 1135,2364.1 773.54,2322.2 419.67,2433 67.844,2496.3 M 2825.1,2556.8 C 2270.2,2668.1 1685.1,2632 1150.5,2444.7 988,2417.6 821.75,2429 659.83,2454.3 m -485.37,91.9 -59.25,13.3 -59.164,13.7 m 2747.254,68.2 c -280.8,54.9 -569,70.8 -854.2,49.4 m -424.7,-59.7 c -257.8,-52.9 -510,-173.7 -779.84,-115.6 -236.4,25.6 -465.76,91.1 -699.021,134.5 M 2780.5,2725.9 C 2201,2841.7 1599.4,2763.8 1041.9,2586.2 700,2551.4 367.71,2662.5 36.441,2726.9 M 2757.7,2812.4 C 2172.6,2923.5 1568.9,2833.6 1007.2,2657.8 674.16,2631 350.78,2735.1 28.743,2802 m 2845.857,69.2 c -620.7,140.4 -1273,56.5 -1871.9,-139.8 m -448.99,27.1 c -177.96,35.1 -354.86,75.4 -531.066,118.4 M 2710.2,2985.4 c -585.3,93 -1183.3,-8.6 -1743.03,-185.3 -323.63,-22.6 -637.4,78.2 -948.73,149.9 m 1467.16,60.3 c -134.2,-19.3 -261.9,-66.4 -392.1,-102 m -398.67,-32 c -197.5,23.3 -391.67,68.3 -583.79,118.7 m 748.8,-61.3 c -173.27,-13.4 -342.09,37.5 -510.57,68.9 m 578.56,5 c -63.49,-25.1 -132.59,-13.5 -198.13,-6.7"
     style="fill:none;stroke:#a94442;stroke-width:14.72979;stroke-miterlimit:4;stroke-dasharray:none;stroke-opacity:0.51977;filter:url(#filter4141)" />
</svg>
